<svg viewBox="0,0,17.69999,59.34372" height="59.34372" width="17.69999" xmlns:xlink="http://www.w3.org/1999/xlink" xmlns="http://www.w3.org/2000/svg" version="1.1"><g transform="translate(-255.25848,-166.00954)"><g style="mix-blend-mode: normal" stroke-dashoffset="0" stroke-dasharray="" stroke-miterlimit="10" stroke-linejoin="miter" stroke-linecap="butt" stroke-width="0" stroke="none" fill-rule="nonzero" fill="#000000" data-paper-data="{&quot;isPaintingLayer&quot;:true}"><path d="M261.72514,222.76246v-53.49987l6.4,-0.85191v55.03331z"></path><path d="M267.85848,195.9887c0,14.76106 -2.82061,26.72724 -6.3,26.72724c-3.47939,0 -6.3,-11.9662 -6.3,-26.72724c0,-14.76106 2.82061,-26.72724 6.3,-26.72724c3.47939,0 6.3,11.9662 6.3,26.72724z"></path><path d="M265.95848,166.00954c3.86599,0 7,13.28454 7,29.67186c0,16.38732 -3.13401,29.67186 -7,29.67186c-3.86599,0 -7,-13.28454 -7,-29.67186c0,-16.38732 3.13401,-29.67186 7,-29.67186z"></path></g></g></svg>