<svg version="1.1" xmlns="http://www.w3.org/2000/svg" xmlns:xlink="http://www.w3.org/1999/xlink" width="11.39051" height="59.34372" viewBox="0,0,11.39051,59.34372"><g transform="translate(-237.45951,-150.32814)"><g data-paper-data="{&quot;isPaintingLayer&quot;:true}" fill="#000000" fill-rule="nonzero" stroke="none" stroke-width="0" stroke-linecap="butt" stroke-linejoin="miter" stroke-miterlimit="10" stroke-dasharray="" stroke-dashoffset="0" style="mix-blend-mode: normal"><path d="M237.45952,206.83106l0.0034,-2.831l3.50178,-0.34945c0,0 2.44999,-16.03355 2.44772,-23.8324c-0.00225,-7.75102 -2.46128,-22.8181 -2.46128,-22.8181l-3.43143,0.09093l0.00231,-3.50985l6.4625,-0.85191v55.03331z"/><path d="M241.85003,150.32814c3.86599,0 7,13.28454 7,29.67186c0,16.38732 -3.13401,29.67186 -7,29.67186c-1.10752,0 -2.15497,-1.09026 -3.08587,-3.03138c-0.15461,-0.3224 3.7615,-8.83096 3.70227,-26.63966c-0.05984,-17.99435 -3.937,-26.13241 -3.83913,-26.34793c0.9646,-2.1243 2.0606,-3.32474 3.22273,-3.32474z"/></g></g></svg>