<svg version="1.1" xmlns="http://www.w3.org/2000/svg" xmlns:xlink="http://www.w3.org/1999/xlink" width="197.33309" height="297.42428" viewBox="0,0,197.33309,297.42428"><g transform="translate(-141.33346,-31.28785)"><g data-paper-data="{&quot;isPaintingLayer&quot;:true}" stroke-linejoin="miter" stroke-miterlimit="10" stroke-dasharray="" stroke-dashoffset="0" style="mix-blend-mode: normal"><path d="M240.23951,36.12633c0.73598,0.19114 1.47036,0.32475 2.20235,0.40077c2.1411,7.91563 3.80969,15.93122 5.00537,24.04675c-0.63468,1.26911 -1.03511,2.60503 -1.20129,4.0078c0.35958,2.1329 0.69314,4.2703 1.00107,6.41246c0.47732,1.84278 1.14483,1.97625 2.00215,0.40078c0.20021,2.0039 0.40042,4.0078 0.60063,6.01168c-1.16684,3.92644 -0.96663,7.80076 0.60064,11.62259c0.26709,0.26732 0.53377,0.53424 0.80086,0.80156c0.40043,-0.53423 0.80086,-0.53423 1.20129,0c-0.1938,5.21573 -0.12694,10.42587 0.20021,15.63038c1.4912,-0.18036 2.35892,0.48775 2.60279,2.0039c1.56608,3.86432 2.50027,7.87212 2.803,12.02338c0.61146,0.68975 1.01189,1.49132 1.2013,2.40469c0.39842,1.98505 0.66552,3.98895 0.80086,6.01168c2.49668,4.95725 4.09839,10.16737 4.80514,15.63039c-0.66753,0.26732 -1.33463,0.53423 -2.00214,0.80156c-0.55699,5.09951 -0.2899,10.17579 0.80086,15.22961c0.31034,0.69054 0.84411,1.09132 1.60172,1.20234c0.75001,-0.54826 1.41752,-1.21596 2.00214,-2.00389c0.12253,0.96427 0.45611,1.83276 1.00107,2.60506c-0.97545,0.53384 -0.97545,1.00155 0,1.40272c0.12054,2.45798 0.78765,4.7288 2.00214,6.81325c0.53377,0.26732 1.06794,0.53423 1.60171,0.80156c0.53377,-0.26732 1.06795,-0.53423 1.60172,-0.80156c0.33716,-1.57346 1.13803,-1.90731 2.40258,-1.00194c0.53377,0.66811 0.53377,1.33579 0,2.0039c0.38001,0.24728 0.71356,0.18075 1.00107,-0.20039c0.6611,1.81673 1.12841,3.68676 1.40149,5.6109c1.18288,0.52061 1.71665,1.32217 1.60172,2.40469c0.32997,-0.90096 0.73039,-0.96748 1.2013,-0.20038c0.79005,0.19839 1.59089,0.26531 2.40258,0.20038c0.97426,-0.42001 0.97426,-0.68694 0,-0.80156c-0.01202,-0.39958 0.18821,-0.66689 0.60064,-0.80155c1.35625,1.133 2.6909,2.33535 4.0043,3.60701c0.72878,1.98867 1.32942,3.99255 1.80192,6.01169c1.89924,0.42523 3.36721,1.49371 4.40472,3.20623c2.11546,0.9254 4.11762,2.06081 6.00643,3.40662c-0.34316,0.27615 -0.60985,0.60998 -0.80086,1.00195c2.26602,0.5118 4.4015,0.97951 6.40686,1.40273c2.29526,1.12178 4.69784,1.92333 7.20772,2.40467c0.71516,0.31462 1.31581,0.78192 1.80192,1.40273c5.65846,0.99473 11.19761,2.66478 16.61782,5.00974c0.48091,0.36191 0.81488,0.82921 1.00106,1.40272c1.16084,-0.43243 2.29566,-0.29898 3.40365,0.40078c0.30072,0.35108 0.50093,0.75185 0.60064,1.20234c0.42005,-0.40759 0.88736,-0.47451 1.4015,-0.20039c1.02591,1.81072 0.95903,3.61423 -0.20021,5.41052c-0.50775,0.88852 -1.10839,1.69009 -1.80193,2.40468c-2.29926,4.7364 -4.70184,9.41231 -7.20772,14.02727c1.35665,2.4211 1.55687,4.95964 0.60064,7.61481c-0.20782,0.40719 -0.54179,0.67411 -1.00106,0.80155c-0.70716,-0.23686 -1.37469,-0.57071 -2.00215,-1.00194c-0.53377,-0.26732 -1.06795,-0.26732 -1.60172,0c-0.77763,0.8152 -1.51162,1.68327 -2.20236,2.60506c-0.07288,2.6223 0.1938,5.16043 0.80086,7.6148c-0.13896,0.6733 -0.53937,1.07409 -1.20128,1.20235c-1.53485,-0.49416 -3.07009,-0.49416 -4.60494,0c-0.79685,2.65877 -1.46397,5.33076 -2.00215,8.01558c0.40043,0.26732 0.80087,0.53424 1.2013,0.80156c-0.62867,1.21357 -1.62975,1.88165 -3.00322,2.00389c-0.7432,-0.49536 -1.47717,-0.49536 -2.20235,0c-1.07234,1.35182 -2.1399,2.68764 -3.20344,4.0078c-0.98665,4.40296 -1.92086,8.81153 -2.803,13.22572c1.71985,2.50728 3.12134,5.17927 4.2045,8.01558c0.87534,4.07593 1.94328,8.21717 3.20343,12.42416c2.52711,3.64549 3.79527,7.65329 3.80408,12.02338c0.41165,0.74585 1.01228,1.28049 1.80192,1.60312c2.76536,5.76321 4.63417,11.77488 5.60601,18.03506c-0.52576,0.43004 -1.12641,0.69735 -1.80193,0.80156c-4.4752,-0.71539 -8.74658,-1.71734 -12.81374,-3.00583c-0.53377,-0.26732 -0.53377,-0.53424 0,-0.80156c-2.39777,-0.86007 -4.667,-1.99588 -6.8073,-3.40663c-2.24721,0.74986 -4.51644,1.41796 -6.80728,2.0039c-0.48812,-0.30579 -0.88856,-0.70657 -1.2013,-1.20234c-0.23465,0.08376 -0.43487,0.21762 -0.60064,0.40078c-0.68352,-0.38434 -1.41792,-0.65126 -2.20236,-0.80156c-1.29819,0.94705 -2.50748,-2.07924 -3.60385,-2.60506c-1.29379,-0.58754 -2.62883,-1.05526 -4.0043,-1.40273c-1.34505,0.60478 -2.74654,1.00556 -4.2045,1.20234c-0.26763,-0.06599 -0.53431,-0.13157 -0.80004,-0.19675c-1.70788,-0.41885 -3.37653,-0.82066 -5.00619,-1.20597c-0.183,0.16592 -2.58357,0.8196 -3.40365,-1.00193c-0.27591,0.34346 -0.60944,0.61037 -1.00106,0.80156c-3.41087,-0.85967 -6.88139,-1.32737 -10.41116,-1.40272c-2.94876,-0.69455 -5.8851,-1.42919 -8.80944,-2.20429c-5.89873,1.14182 -11.77142,2.41109 -17.61889,3.80741c-3.91821,2.04678 -7.38872,4.71836 -10.41116,8.01558c-1.83718,1.30815 -3.83932,2.24316 -6.00643,2.80545c-4.0043,0.26732 -8.00858,0.26732 -12.01288,0c-0.74281,-0.16913 -1.47718,-0.36953 -2.20236,-0.60117c-2.58918,1.03481 -5.19196,1.03481 -7.80837,0c-2.68929,0.62401 -5.42541,0.89133 -8.20881,0.80156c-2.06901,-0.06693 -4.13764,-0.13346 -6.20665,-0.20038c-1.08569,-0.72341 -2.15347,-0.72341 -3.20344,0c-4.93861,0.26732 -9.87727,0.26732 -14.81587,0c-3.32932,-8.59791 -6.86643,-16.94735 -10.61137,-25.0487c-1.17879,-1.57987 -2.44677,-3.04953 -3.80408,-4.40857c0.26696,-0.53424 0.66739,-0.93502 1.20129,-1.20234c0.50955,-2.37582 0.17586,-4.64705 -1.00107,-6.81325c-1.29467,-0.04048 -2.49596,-0.57473 -3.60387,-1.60312c-1.27555,0.4649 -2.27662,0.13105 -3.00321,-1.00194c0.86727,-4.07632 2.1353,-8.01718 3.80408,-11.82297c0.59528,-0.2625 1.06246,-0.6633 1.4015,-1.20235c-0.52641,-0.68093 -0.52641,-1.34862 0,-2.00389c0.5339,-0.13346 0.5339,-0.26732 0,-0.40078c-0.36199,-0.28415 -0.49545,-0.68493 -0.40043,-1.20234c0.50815,-2.90324 1.17554,-5.77524 2.00215,-8.61676c-0.65866,-0.65929 -1.32606,-1.32738 -2.00215,-2.00389c1.75808,-2.34656 3.2263,-4.81815 4.40473,-7.41441c0,0.26732 0,0.53423 0,0.80156c0.13346,0.53423 0.26697,0.53423 0.40043,0c0.26696,0 0.40043,-0.13346 0.40043,-0.40078c0.05922,-4.37331 1.1938,-8.51456 3.40365,-12.42416c0.32671,-0.53023 0.7939,-0.79714 1.4015,-0.80155c0.11436,0.97511 0.38132,0.97511 0.80086,0c-0.09095,-0.97511 0.3095,-1.64279 1.2013,-2.00389c0.33563,0.13706 0.46913,0.40399 0.40042,0.80156c-1.05721,0.51861 -1.05721,1.05284 0,1.60312c1.37828,-0.75787 2.84654,-1.15865 4.40473,-1.20234c0.9344,-1.4885 1.73526,-3.09161 2.40258,-4.80934c-0.06675,-0.13346 -0.13346,-0.26732 -0.20021,-0.40078c-0.6971,0.50418 -1.43121,0.90496 -2.20236,1.20234c-0.26696,0 -0.40043,-0.13346 -0.40043,-0.40078c0.91899,-1.12098 1.92006,-2.18986 3.00321,-3.20624c0.19621,-0.51821 0.26297,-1.05284 0.20023,-1.60312c-0.5339,0 -1.06782,0 -1.60172,0c0.13043,-1.1266 0.46414,-2.19545 1.00107,-3.20622c1.44121,-1.03963 2.77601,-2.24196 4.00428,-3.60702c0.43219,-1.0272 0.6324,-2.09568 0.60064,-3.20624c-2.07727,0.35189 -2.67792,-0.31621 -1.80193,-2.00389c0.46719,-0.73463 0.93433,-1.46966 1.40151,-2.20428c1.08933,-0.31942 2.0904,-0.78673 3.00321,-1.40273c0.86189,-1.98265 1.66275,-3.98654 2.40258,-6.01168c3.25168,-2.3185 6.38845,-4.79012 9.41008,-7.41443c1.43434,-0.50136 2.90272,-0.90215 4.40472,-1.20234c-0.26709,-0.13346 -0.53377,-0.26733 -0.80086,-0.40078c1.0259,-1.2284 2.2272,-2.23033 3.60387,-3.00583c0.55779,-1.75662 0.82488,-3.56012 0.80086,-5.41052c-0.2791,-3.54129 -0.54619,-7.08178 -0.80086,-10.62065c-1.32102,0.35108 -2.65565,0.41802 -4.00429,0.2004c0.68153,-0.89574 1.08196,-1.89769 1.20129,-3.00584c0.40043,0 0.80086,0 1.20129,0c-0.06286,-0.55026 0.004,-1.08491 0.20021,-1.60312c1.26296,-1.71534 2.26403,-3.58537 3.00322,-5.61091c0.33036,-0.3551 0.73078,-0.48855 1.20128,-0.40078c1.01789,-3.37536 2.28605,-6.71546 3.80408,-10.01949c0.43205,-1.0272 0.63227,-2.09568 0.60064,-3.20624c0.40043,-0.26732 0.80087,-0.53423 1.2013,-0.80155c1.30339,-2.74495 2.50468,-5.55039 3.60386,-8.41636c0,-0.26732 0,-0.53423 0,-0.80156c0.9254,-1.53899 1.79273,-3.14212 2.6028,-4.80935c0.11853,-1.43879 -0.08169,-2.8415 -0.60064,-4.20817c1.00948,-5.04341 2.54433,-9.91969 4.60493,-14.62845c0.98666,-3.89718 2.05421,-7.77151 3.20344,-11.62259c0.75921,-0.47292 1.35985,-1.07409 1.80193,-1.80351c-0.19581,-0.45609 -0.32915,-0.92379 -0.40043,-1.40272c0.29592,0.05249 0.563,-0.01443 0.80086,-0.20038c-0.15617,-2.77138 0.24426,-5.50992 1.20129,-8.21598c-0.68875,-1.0829 -1.35625,-2.15138 -2.00214,-3.20623c0.53377,-0.26732 0.53377,-0.53423 0,-0.80155c0,-0.13346 0,-0.26733 0,-0.40078c-0.13334,-0.26732 -0.2671,-0.53424 -0.40043,-0.80156c0.18139,-0.38394 0.44808,-0.71819 0.80086,-1.00194c1.20129,-0.40078 2.40258,-0.80156 3.60386,-1.20234c0.92579,-4.89432 2.0602,-9.77059 3.40365,-14.62844c0.36839,-0.17233 0.70195,-0.3062 1.00107,-0.40078c-0.26709,-0.40078 -0.53377,-0.80157 -0.80086,-1.20235c0.89776,-1.76744 2.03218,-3.37055 3.40365,-4.80934c0.5602,-1.14743 0.96064,-2.34978 1.2013,-3.60702c0.53938,-3.79053 1.27336,-7.53112 2.20235,-11.22182c-0.30753,-1.41832 0.0929,-2.68744 1.20129,-3.80741c-0.44928,-1.36605 -0.51615,-2.76878 -0.20021,-4.20818c0.95703,-4.98985 2.09143,-9.93279 3.40365,-14.82883c0.61867,-0.3815 1.28618,-0.51508 2.00215,-0.40077c-0.38401,-2.78103 0.68393,-3.51578 3.20344,-2.20428c0.33356,0.33399 0.66752,0.66796 1.00106,1.00194c0.12814,1.21833 0.12814,2.42066 0,3.60702c0.44328,0.48571 0.6435,0.35212 0.60064,-0.40078zM215.4129,97.84634c0.86173,-0.23125 0.99506,-0.69896 0.40042,-1.40273c1.01189,-1.25003 2.34651,-1.71735 4.00428,-1.40272c0.01682,1.98906 -0.91739,3.32526 -2.803,4.00778c-0.70515,-0.21441 -1.23892,-0.6152 -1.60171,-1.20234zM224.62278,119.08762c0.52696,1.03682 0.79405,2.23916 0.80085,3.60702c-0.41363,6.54112 -0.68033,13.08706 -0.80085,19.63819c-2.81582,0.13226 -5.61883,-0.00122 -8.40902,-0.40078c0.35719,-3.52406 1.02431,-6.9976 2.00216,-10.42026c-0.04325,-0.37753 -0.1766,-0.71139 -0.40043,-1.00196c2.00776,-3.28999 3.34239,-6.83009 4.00429,-10.62064c0.81168,0.06493 1.61253,-0.00201 2.40259,-0.20038c0.22263,-0.1535 0.35598,-0.35389 0.40043,-0.60117zM218.61634,142.73359c0.36199,0.28414 0.49533,0.68493 0.40043,1.20235c1.94929,-0.66127 3.48414,-0.12664 4.60494,1.60312c-0.03924,2.39226 -1.17406,3.12688 -3.40365,2.20428c-1.64857,-1.35224 -2.18234,-3.02187 -1.60172,-5.00974zM261.06182,153.95539c-0.26709,0.13346 -0.53377,0.26732 -0.80086,0.40078c-1.34264,-1.41514 -2.54393,-2.95134 -3.60387,-4.60897c0.84771,-1.31616 2.04899,-2.05118 3.60387,-2.20427c-0.13214,2.20829 0.13455,4.34564 0.80086,6.41246zM194.59058,180.40685c0.9342,0 1.86881,0 2.803,0c-0.26308,2.06562 -0.9302,4.00258 -2.00215,5.8113c0.45928,0.83562 0.19221,1.43679 -0.80085,1.80349c-0.2771,-0.21042 -0.47732,-0.47773 -0.60064,-0.80156c-0.43286,-1.99187 -0.5662,-3.99578 -0.40043,-6.01168c0.39842,-0.22683 0.73198,-0.49416 1.00109,-0.80156zM309.91419,200.4458c1.76069,-0.03006 3.49574,0.17034 5.20557,0.60117c5.53672,1.51735 10.87565,3.52124 16.01716,6.01168c1.07876,1.06327 1.41231,2.33254 1.00106,3.80741c-2.07063,4.54243 -4.47319,8.95101 -7.20772,13.22572c-1.62014,2.77379 -3.88896,3.57534 -6.8073,2.40467c-1.39069,-2.32211 -2.59197,-4.72678 -3.60386,-7.21401c-0.42726,-0.27694 -0.89456,-0.47733 -1.4015,-0.60117c-0.05086,-1.96622 -0.91859,-3.63586 -2.6028,-5.00974c-0.85651,-2.24918 -1.92446,-4.38693 -3.20343,-6.41247c-0.88575,-2.99983 -0.01842,-5.27106 2.6028,-6.81325zM249.44937,205.65593c0.5606,0.24048 0.96103,0.64126 1.2013,1.20235c0.12854,0.52783 0.26188,1.06248 0.40043,1.60312c-0.59142,0.85726 -0.99186,1.39227 -1.20129,2.40545c-0.97425,-0.09097 -1.64135,0.2098 -2.00214,1.10234c-1.10278,0.25289 -1.53718,0.12099 -1.90237,1.2039c-0.16577,-0.18317 -0.66601,0.98298 -0.90064,0.89922c-3.83011,2.97017 -7.70105,5.84257 -11.61244,8.61676c-1.84117,1.24042 -3.40955,2.17659 -4.50473,4.00896c0.05245,-0.29618 0.08558,0.0365 -0.10021,-0.20156c-1.70423,2.10488 -3.77325,3.47494 -6.20665,4.70974c-0.97024,0.62963 -1.70401,1.29771 -1.80171,2.40506c-1.11679,-0.26091 -1.98474,0.50641 -3.00344,1.30156c0.68473,-5.28187 1.95291,-10.492 3.80408,-15.63039c2.23479,-3.69919 4.97093,-6.57158 8.2088,-8.61676c0.58302,-0.69935 1.11679,-1.43399 1.60171,-2.20428c1.33423,-0.33145 2.40215,-1.06608 3.20343,-2.20428c-0.13334,-0.13346 -0.26709,-0.26732 -0.40043,-0.40078c5.06101,-1.76984 10.13325,-1.83677 15.21631,-0.2004zM214.61205,260.61424c-0.41164,-1.04122 -0.81208,-1.04122 -1.2013,0c-0.59343,-2.91087 -0.79364,-5.85019 -0.60064,-8.81715c1.114,-5.06143 2.38216,-9.32118 3.80408,-14.27921c-0.33515,-0.40518 -0.46851,-0.87291 -0.40043,-1.40273c0.51696,-0.09499 0.91739,0.03848 1.2013,0.40078c1.2966,-0.49617 2.49787,-0.86387 3.60387,-1.7039c0.93541,-0.60277 1.66938,-1.30433 2.20235,-2.30467c0.28751,0.38114 0.62107,0.04768 1.00109,-0.19961c1.00788,-0.94143 2.04207,-1.54338 2.903,-2.60584c3.5418,-1.53098 6.37833,-3.43567 8.3088,-6.71403c0.16577,0.18317 0.36601,-0.38298 0.60064,-0.29922c4.3847,-2.92289 8.42233,-6.02912 12.31331,-9.5187c1.38749,-0.39437 2.55526,-1.36208 3.70408,-2.3039c1.53324,3.07117 3.2687,6.01009 5.20557,8.81714c0.80806,3.23308 1.74228,6.43932 2.80301,9.61871c0.59343,9.874 0.92699,19.0096 1.00106,28.90765c0.05685,3.9124 -0.14337,7.78674 -0.60064,11.62261c-1.90524,1.55822 -4.1076,2.42671 -6.60708,2.60506c-2.10625,1.48689 -4.44197,2.48884 -7.00752,3.00584c-1.53044,-0.35149 -2.46503,-1.28651 -2.803,-2.80545c-1.40996,-1.31363 -2.89787,-2.27348 -4.46371,-2.87951c-2.74422,-1.0621 -5.7278,-1.03748 -8.95067,0.07406c-0.98826,-0.52222 -1.92245,-1.12338 -2.803,-1.8035c-1.06795,-0.13346 -2.13549,-0.26733 -3.20344,-0.40078c-0.90417,-1.78949 -2.37255,-2.7249 -4.40473,-2.80545c-0.32595,-1.23239 -1.1268,-1.90049 -2.40258,-2.00389c0.13334,-0.13346 0.2671,-0.26733 0.40043,-0.40078c-1.41552,-0.26572 -2.6168,-0.86689 -3.60387,-1.80349zM296.70003,224.49255c0.53377,0 1.06795,0 1.60172,0c-0.05245,0.29618 0.01443,0.56349 0.20023,0.80155c1.22852,1.37186 2.63001,2.57421 4.20449,3.60702c0.02402,0.21762 0.15738,0.35109 0.40043,0.40078c0.2731,-0.29779 0.54017,-0.5647 0.80086,-0.80156c-0.0833,0.9699 0.05045,1.9049 0.40042,2.80545c-0.1874,0.65488 -0.58783,1.12217 -1.20128,1.40272c-1.85077,0.42684 -3.71958,0.7611 -5.606,1.00197c-0.99027,-0.08057 -1.92446,-0.34788 -2.80302,-0.80156c-0.44047,-1.57987 -0.50735,-3.183 -0.2002,-4.80935c0.67633,-1.26926 1.41031,-2.47161 2.20236,-3.60702zM211.80903,243.32917c-0.43486,0.04809 -0.70195,0.31542 -0.80086,0.80156c0.01722,0.36712 0.15057,0.63443 0.40043,0.80156c-1.16405,2.75255 -2.29846,4.80801 -3.40365,7.66636c-1.18446,0.50659 -2.31888,1.04122 -3.40365,1.60312c-3.70237,-1.44562 -5.83785,-3.43415 -6.40686,-7.46598c1.09758,-3.82182 3.03285,-6.82767 5.80622,-9.01754c0.27389,-0.5146 0.20703,-0.9823 -0.20021,-1.40272c1.72425,-0.05811 2.65845,-1.06006 2.803,-3.00584c1.02109,-0.02445 1.62175,-0.55868 1.80193,-1.60312c0.13334,0.13346 0.2671,0.26733 0.40043,0.40078c0.2759,-0.34347 0.60944,-0.61039 1.00106,-0.80156c0.45689,2.09047 1.12441,4.09436 2.00215,6.01168c0.13334,-0.13346 0.2671,-0.26732 0.40043,-0.40077c-0.72678,-2.35978 -1.06073,-4.76447 -1.00107,-7.21402c0.557,-1.31815 1.42472,-1.98627 2.60279,-2.00389c0.44287,1.71414 0.50934,3.45071 0.20021,5.21012c-0.83409,3.4451 -1.56808,6.91865 -2.20236,10.42025zM271.47298,265.82434c-0.61987,0.12865 -0.88696,0.52944 -0.80086,1.20235c-1.30059,0.16071 -2.56876,0.42804 -3.80408,0.80156c-0.87493,-0.81758 -1.876,-1.35222 -3.00321,-1.60312c-0.01162,-7.08659 -0.07848,-13.41715 -0.20021,-20.4913c0.40043,-0.26732 0.80086,-0.53424 1.20129,-0.80156c3.37201,6.85172 5.57437,13.31574 6.60708,20.89208zM304.30817,269.37981c0.36199,0.28415 0.49533,0.68494 0.40043,1.20235c0.12653,1.39391 -0.07369,2.7301 -0.60064,4.00777c-0.46209,-0.49816 -0.99626,-0.89894 -1.60172,-1.20234c-0.16177,-1.68006 0.43887,-3.01586 1.80192,-4.0078zM234.93393,272.03684c-0.5606,-0.24048 -0.76102,-0.34126 -1.00129,-0.90234c0.44928,-0.26291 1.08304,-0.39638 1.70172,-0.40078c1.47078,0.18155 2.23915,0.48194 3.70472,0.70116c1.33182,1.26286 2.93312,2.13173 4.00387,3.4074c-1.82676,0.01443 -3.56222,-0.38636 -5.20557,-1.20235c-0.23465,0.08376 -0.63487,-0.28238 -0.80064,-0.09922c-0.88775,-0.63203 -1.55508,-0.80012 -2.40279,-1.50389zM166.16009,303.04525c3.13072,0.84324 6.06719,2.1125 8.80945,3.80741c1.56652,0.91378 1.56652,1.78226 0,2.60507c-3.81698,-0.89534 -7.6878,-1.49651 -11.61245,-1.8035c-0.26696,-0.40078 -0.53389,-0.80156 -0.80085,-1.20234c0.9075,-1.50933 2.10878,-2.64474 3.60386,-3.40662zM255.45581,314.66786c0.0941,-0.23927 0.29432,-0.37273 0.60064,-0.40078c0.60064,0.20038 1.20129,0.40078 1.80193,0.60116c-0.81888,0.19639 -1.61974,0.12945 -2.40258,-0.20038z" fill="#000000" fill-rule="evenodd" stroke="none" stroke-width="1" stroke-linecap="butt"/><path d="M199.84063,159.70237c0,0 -3.53506,-2.11293 -2.91412,-5.66353c0.68592,-3.92218 7.91412,-5.58647 7.91412,-5.58647" fill="none" fill-rule="nonzero" stroke="#000000" stroke-width="2.5" stroke-linecap="round"/><path d="M290.00898,320.79757c0,0 -4.75632,2.02072 -7.65494,1.74021c-8.16347,-0.79002 -10.89051,-6.10385 -10.89051,-6.10385" fill="none" fill-rule="nonzero" stroke="#000000" stroke-width="2.5" stroke-linecap="round"/></g></g></svg>