<svg version="1.1" xmlns="http://www.w3.org/2000/svg" xmlns:xlink="http://www.w3.org/1999/xlink" width="192.6608" height="188.59866" viewBox="0,0,192.6608,188.59866"><g transform="translate(-146.301,-85.63968)"><g fill="#000000" stroke="none" stroke-width="0" stroke-miterlimit="10"><path d="M199.83334,194.5c0,-0.48938 0.26169,0.20543 0.27568,-1.54528c0.00909,-1.13645 -0.19956,-1.02929 -0.15778,-1.58112c0.55355,-7.3111 3.03236,-14.08449 6.93071,-19.81441c-11.51054,-5.89187 -20.97186,-14.11781 -20.04862,-27.05918c0.22278,-3.12273 0.3452,-6.35851 0.80401,-9.59669c0.14623,-1.03212 1.19087,-1.3214 1.4469,-2.34348c0.35046,-1.39905 -0.3969,-2.79478 -0.14214,-3.80867c0.94437,-3.75846 2.46716,-7.46556 4.03839,-11.05257c0.18765,-0.42839 0.8777,-0.62769 1.07044,-1.07853c0.26039,-0.60912 0.02566,-1.47106 0.29646,-2.03809c1.8581,-3.89064 3.97694,-7.48541 6.56956,-10.94103c2.30385,-3.07074 4.53612,-5.93791 7.49596,-8.4427c0.61577,-0.5211 1.26347,-0.51327 2.20148,-1.25787c1.1067,-0.8785 2.51951,-2.51037 3.34159,-3.0365c5.58122,-3.57195 11.08596,-4.81263 18.87736,-5.23719c3.06279,-0.16689 5.60489,0.46036 7.71476,1.30809c0.35321,0.14192 0.47716,1.17139 0.84844,1.33813c0.65294,0.29323 1.54763,-0.25057 2.0568,0.11704c4.96419,3.58403 6.45382,10.62983 7.06032,19.71502c0.07559,1.13229 -0.74142,1.54339 -0.69699,2.72989c0.01688,0.4507 0.9068,1.65508 0.92,2.11294c0.11963,4.15239 0.09668,8.59131 0.09668,13.17888c0,9.49156 -0.78167,19.44837 -2.42757,28.23241c5.45405,1.04633 10.5224,3.17773 14.97168,6.16084c0.66902,0.44856 1.36852,1.69614 1.96428,2.23599c2.18669,1.98148 1.68043,0.49577 2.47936,1.20765c4.97561,4.43349 8.85918,10.0664 11.19688,16.44488c10.22075,-4.40423 21.07142,-7.35146 30.0788,-4.01848c3.04264,1.12586 7.87495,5.63498 10.40159,8.37994c1.93554,2.10278 0.11576,1.17801 1.63219,3.46734c1.17127,-0.32315 1.59334,2.9791 2.8654,3.1834c0.75238,0.12083 2.4296,2.03491 3.17409,3.18385c5.36125,8.27383 9.82416,18.03568 11.28532,28.11885c0.08871,0.61218 -0.58364,0.72554 -0.85086,1.58982c-0.3219,1.04113 1.28066,2.41987 1.32291,3.50769c0.37086,9.54858 -2.22243,19.2081 -9.52691,28.00958c-1.92933,2.32474 -3.91882,3.90883 -5.96638,4.86766c-0.43187,0.20223 -1.19966,0.04332 -1.63667,0.19101c-0.30651,0.10359 -0.28413,0.51565 -0.58998,0.60501c-6.64943,1.9427 -12.68891,-1.55746 -19.30705,-7.02012c-0.91649,-0.75647 -1.11097,-1.91667 -1.89767,-2.51451c-0.8432,-0.64078 -2.27994,-0.72233 -3.32522,-1.65831c-2.77478,-2.48462 -6.39443,-5.81751 -9.30417,-8.53742c-7.04348,-6.58395 -12.92881,-12.96093 -17.69576,-18.56828c-7.39997,7.47046 -17.66506,12.09786 -29.01093,12.09786c-1.2676,0 -2.52171,-0.05776 -3.75984,-0.17079c0.26469,8.03314 -0.75149,15.93637 -4.08639,22.20127c-0.39571,0.74338 -0.55665,1.1142 -1.37007,1.68625c-0.37615,0.26453 -0.20596,1.3789 -0.48777,1.73936c-2.08178,2.66282 -5.72534,5.19119 -9.25701,6.73618c-12.53499,5.48365 -30.19317,8.90217 -46.85574,5.10167c-0.57496,-0.13114 -1.13108,-1.19001 -2.28795,-1.17684c-1.29522,0.01475 -2.17027,0.11892 -3.22705,-0.26056c-4.3634,-1.56685 -7.4973,-3.52152 -11.81365,-6.75464c-0.47597,-0.35652 0.14168,-0.24125 -0.65031,-1.19522c-0.66379,-0.79955 -1.3179,-0.54982 -1.58973,-0.82744c-2.42522,-2.4769 -4.64605,-5.47548 -6.6608,-9.13741c-6.56555,-13.9783 1.43859,-20.29659 16.07276,-27.76271c0.3676,-0.18755 2.10786,-0.2965 2.16178,-0.77125c0.18261,-1.6079 0.38944,-0.85234 1.03712,-1.22742c2.68975,-1.55765 5.33274,-3.00328 8.25436,-4.56921c8.32244,-4.46068 17.41618,-8.45702 25.89816,-11.15554c-1.43311,-4.16593 -2.21118,-8.63662 -2.21118,-13.28904z"/></g></g></svg>