<svg version="1.1" xmlns="http://www.w3.org/2000/svg" xmlns:xlink="http://www.w3.org/1999/xlink" width="137.18211" height="255.96232" viewBox="0,0,137.18211,255.96232"><g transform="translate(-170.11028,-52.66312)"><g fill="#000000" stroke="none" stroke-width="0" stroke-miterlimit="10"><path d="M299.26635,288.26493l0.73911,0.24064c0.07953,-0.20357 0.15611,-0.40873 0.22971,-0.61544c-0.32897,0.15035 -0.65972,0.27407 -0.96883,0.3748zM298.04808,290.46652c0.1033,0.57601 0.21062,1.05782 0.2928,1.39794c0.21926,-0.35898 0.42829,-0.7253 0.62675,-1.09856zM285.23694,300.85247c2.17701,-0.81714 3.37683,-2.27486 3.86109,-2.99253c-1.85753,0.91159 -3.88367,1.538 -6.02641,1.82299c0.46285,0.43852 1.19043,0.96306 2.16532,1.16954zM283.1181,301.36472c0.52459,-0.064 1.01112,-0.16547 1.46141,-0.29492c-0.87029,-0.2412 -1.64868,-0.55333 -2.39599,-0.62917c-1.1304,-0.11473 -1.75345,-0.38803 -2.0693,-0.58605c-1.22301,-0.02254 -2.4935,-0.17826 -3.77036,-0.44683c0.44089,0.56032 2.31398,2.50112 6.77425,1.95697zM274.10971,259.88027c-0.07336,0.55647 -0.05764,1.03705 -0.03359,1.33101c0.27252,-0.08989 0.5476,-0.17428 0.82508,-0.25304c-0.15287,-0.3143 -0.41213,-0.75007 -0.79148,-1.07797zM289.55711,261.28772c-0.07314,0.31876 -0.12929,0.62257 -0.17154,0.88459c0.20554,0.10066 0.40891,0.20482 0.61004,0.31239zM183.51987,227.57428c-0.15553,-0.31062 -0.43536,-0.55134 -0.66756,-0.71061c-0.83202,0.77892 -1.60195,1.62336 -2.30155,2.52509c0,0.00022 0,0.00044 0,0.00066c0.00047,0.65737 -0.14617,1.0149 -0.2919,1.18966c-0.11463,0.13747 -0.37824,0.11672 -0.61028,0.06286c-0.39044,0.5856 -0.75286,1.19148 -1.08533,1.81573c-0.03972,0.28646 -0.07419,0.63065 -0.07396,0.96121c0.00047,0.65737 0.20867,1.24071 0.06295,1.41547c-0.20413,0.2448 -0.69519,0.06648 -1.03446,-0.10147c-0.02972,0.07617 -0.059,0.15254 -0.08787,0.22913c0.05402,0.99078 0.15986,3.18059 0.15194,5.00303c0.21509,-0.58261 0.45375,-1.09309 0.64252,-1.46434c0.11277,-0.57462 0.25038,-1.13976 0.41169,-1.69433c-0.00196,-0.24069 -0.01717,-0.65383 -0.08989,-0.99588c-0.06349,-0.29865 -0.14731,-0.61376 -0.0309,-0.75336c0.13512,-0.16205 0.39599,-0.03578 0.65533,0.16787c0.45351,-1.17297 1.01624,-2.28979 1.67588,-3.33907c-0.00362,-0.02444 -0.00795,-0.04869 -0.01305,-0.07265c-0.06349,-0.29865 -0.14731,-0.45247 -0.03091,-0.59207c0.11304,-0.13557 0.28702,-0.09256 0.46615,0.02159c0.73947,-1.07953 1.58445,-2.08088 2.52036,-2.99056c-0.05972,-0.19114 -0.14833,-0.43666 -0.26916,-0.67797zM185.11279,225.86728c0.20356,0.26909 0.57974,0.33814 0.89796,0.34155c-0.00664,-0.33119 -0.0233,-0.92034 -0.06065,-1.18179c-0.02263,-0.15837 -0.09908,-0.34677 -0.15681,-0.47249c-0.26897,0.1757 -0.53376,0.35729 -0.79417,0.54456c-0.02068,0.26128 -0.01587,0.59692 0.11367,0.76817zM177.52099,242.07157c-0.00107,1.43419 0.24204,2.17899 0.42512,2.53639c-0.06352,-0.74008 -0.09313,-1.49394 -0.09313,-2.25993c0,-0.65543 0.0315,-1.30259 0.09307,-1.94015c-0.21117,0.55848 -0.42474,1.23027 -0.42507,1.66369zM177.11445,243.84394c-0.2598,0.97679 -0.57565,1.91588 -0.73881,2.38334c0.13497,0.77642 0.31169,1.53852 0.52775,2.2839c0.23027,-0.07928 0.49416,-0.18386 0.65439,-0.29201c0.24524,-0.16554 0.60824,-0.55374 0.81944,-0.78994c-0.04333,-0.19075 -0.08373,-0.38268 -0.1213,-0.57575c-0.24934,-0.33838 -0.89139,-1.34375 -1.14147,-3.00953zM177.0269,242.39625c0.02086,-0.37327 0.07937,-0.75074 0.16209,-1.12015c0.16457,-1.88302 -0.25153,-3.64019 -0.41906,-4.25073c-0.46461,1.75594 -0.71214,3.60016 -0.71214,5.50218c0,0.66324 0.0301,1.31946 0.089,1.96736c0.22851,-0.21831 0.61668,-0.76808 0.88011,-2.09866zM196.29478,263.58901c2.09274,0.06813 3.05492,-0.97825 3.34779,-1.38361c-0.58331,0.04811 -1.17468,0.07261 -1.77318,0.07261c-1.29875,0 -2.56107,-0.13303 -3.78092,-0.38254c0.085,0.46888 0.47074,1.63704 2.20631,1.69354zM203.37286,262.02799c-0.24114,0.32927 -1.06314,1.05512 -1.62113,1.5329c2.98768,-0.59917 5.75104,-1.81897 8.14986,-3.51923c-0.01114,-0.33081 0.02346,-1.12113 0.49735,-2.02011c-1.93328,1.52772 -4.17205,2.69552 -6.62673,3.41806c-0.14627,0.22591 -0.28494,0.43213 -0.39936,0.58837zM202.67333,261.85068c0.03758,-0.04915 0.07363,-0.09804 0.10824,-0.1466c-0.1956,0.04695 -0.39244,0.09113 -0.59047,0.13249c-0.66576,0.50439 -2.29634,1.64208 -4.05033,2.13445c0.79259,-0.02287 1.5744,-0.08874 2.34319,-0.19534c0.7475,-0.47731 1.57696,-1.12398 2.18938,-1.92499zM179.20432,251.86073c-0.10139,0.35994 -0.22187,0.93767 -0.30296,1.34732c0.42488,0.7387 0.8925,1.44971 1.39945,2.12965c0.09467,-0.08764 0.21696,-0.17276 0.3645,-0.21819c0.29121,-0.08964 0.86709,-0.16532 1.26466,-0.27682c0.10664,-0.02991 0.19781,-0.06768 0.27012,-0.1032c-0.27975,-0.31529 -0.55147,-0.63699 -0.81488,-0.96439c-0.74655,-0.92791 -1.35523,-1.91033 -1.84376,-2.94056c-0.12616,0.35729 -0.25955,0.75081 -0.33712,1.02619zM181.2139,255.61295c-0.16841,0.05465 -0.29959,0.244 -0.3842,0.40529c0.71167,0.87885 1.49139,1.70034 2.33114,2.45645c0.16709,-0.27254 0.41166,-0.65299 0.58352,-0.84012c0.19149,-0.20851 0.54623,-0.45848 0.76587,-0.60469c-0.58849,-0.51175 -1.15193,-1.05142 -1.6887,-1.61459c-0.51094,0.03897 -1.34721,0.11315 -1.60762,0.19766zM188.25736,260.84164c0.73593,0.63346 2.71627,1.80554 3.82979,2.44706c0.86825,0.22617 1.75789,0.39932 2.66528,0.51577c-2.06986,-0.84204 -4.34448,-2.77854 -4.97136,-3.33232c-0.85996,-0.39786 -1.68972,-0.85382 -2.48641,-1.36011c0.12189,0.50874 0.38854,1.23539 0.9627,1.7296zM187.45654,261.01894c-0.44137,-0.52645 -1.19786,-1.62033 -1.5408,-2.12288c-0.1986,0.05309 -0.37571,0.12008 -0.48879,0.20402c-0.32896,0.24417 -0.50176,0.52459 -0.59179,0.73681c1.3219,0.96963 2.75896,1.79148 4.28686,2.44122c-0.60428,-0.39673 -1.40811,-0.95221 -1.66547,-1.25918zM212.72284,255.9439c0.62874,-0.19107 1.26157,-0.21104 1.68205,-0.19414c0.48761,-0.62215 0.94159,-1.27193 1.35921,-1.94657c-0.05975,-0.29966 -0.15812,-0.77774 -0.26332,-1.22548c-0.02802,-0.11924 -0.12472,-0.2041 -0.23462,-0.2636c-0.72728,1.29875 -1.5963,2.50004 -2.58795,3.58566c0.01442,0.01405 0.0293,0.02875 0.04462,0.04414zM213.12231,256.39526c0.14484,0.17967 0.26948,0.34463 0.35471,0.46009c0.15923,-0.17733 0.31555,-0.35732 0.46889,-0.53991c-0.21107,-0.01144 -0.49686,-0.00088 -0.8236,0.07982zM211.16324,258.10916c-0.03112,-0.04482 -0.0626,-0.08673 -0.09418,-0.12592c-0.32833,0.59882 -0.35297,1.1503 -0.33591,1.4384c0.27997,-0.21943 0.55435,-0.44568 0.82288,-0.67849c-0.08248,-0.15699 -0.20656,-0.36579 -0.39279,-0.63398zM215.89747,252.07192c0.03955,0.32699 0.14507,0.7852 0.22959,1.1227c0.36848,-0.64172 0.70475,-1.30429 1.00658,-1.98552c-0.06516,-0.40043 -0.15858,-0.96529 -0.2063,-1.21033c-0.07122,-0.36575 -0.22426,-0.50318 -0.34743,-0.55285c-0.2632,0.72312 -0.56627,1.42446 -0.90672,2.10168c0.08761,0.11212 0.1963,0.29291 0.22429,0.52432zM217.27618,248.25281c0.14129,0.70701 0.25834,1.39519 0.32598,1.81004c0.87966,-2.34439 1.36075,-4.88367 1.36075,-7.5353c0,-1.7203 -0.20249,-3.3933 -0.58494,-4.99649c-0.04901,-0.20544 -0.48472,0.16587 -0.34772,-0.34422c0.07775,-0.28949 0.02961,-0.84495 -0.06025,-1.12935c-0.95062,-3.00886 -2.54662,-5.73104 -4.62559,-8.00407c-0.25502,0.15589 -0.50169,0.31189 -0.68114,0.43672c-0.13372,0.09303 -0.2948,0.21568 -0.46054,0.34677c0.1174,0.12387 0.23341,0.24924 0.34799,0.37607c0.12628,0.13978 0.45066,0.17523 0.60154,0.31825c0.225,0.21328 0.28027,0.53611 0.458,0.75654c1.75435,2.1758 3.02384,4.69803 3.67935,7.53564c0.10987,0.47562 0.62499,-0.61472 0.70045,-0.12485c0.04033,0.26186 -0.34646,2.09904 -0.31627,2.36472c0.10383,0.91349 0.14711,1.84909 0.12557,2.80331c-0.03882,1.71984 -0.28048,3.37447 -0.70257,4.94256c0.07592,0.13189 0.14833,0.28824 0.17939,0.44366zM211.56202,227.08706c0.12381,-0.11771 0.32622,-0.23264 0.50246,-0.32004c-0.50172,-0.46354 -1.02562,-0.90342 -1.56993,-1.31788l-0.02738,1.75242c0.19147,0.16078 0.38012,0.32513 0.56589,0.49295c0.19287,-0.24151 0.39028,-0.47561 0.52895,-0.60745zM185.45918,204.54345c0.36415,-0.37596 0.61858,-0.95646 0.70104,-1.16053c-0.21311,-0.14077 -0.40427,-0.28829 -0.53753,-0.43244c-0.2371,-0.25645 -0.5087,-0.68696 -0.75714,-1.12834c-0.09948,1.89865 -0.16368,3.12684 -0.1824,3.49036c0.21951,-0.2109 0.51192,-0.49639 0.77603,-0.76906zM186.10773,205.11474c-0.38252,0.46035 -0.75393,0.98013 -0.97358,1.29744c0.33528,-0.00713 0.94155,-0.04145 1.27007,-0.19077c0.26372,-0.11988 0.64302,-0.44238 0.93031,-0.70767c0.04003,-0.35626 0.09161,-0.83082 0.15136,-1.41526c-0.13795,-0.06332 -0.32969,-0.1543 -0.54109,-0.26332c-0.15637,0.30101 -0.44643,0.80945 -0.83707,1.27958zM186.51605,206.90136c-0.26108,0.05007 -0.70236,0.10739 -1.05856,0.15011c0.08058,0.14075 0.15186,0.28808 0.20397,0.44693c0.32845,1.00125 1.14128,0.17005 1.46625,-0.75538c-0.20702,0.06121 -0.44178,0.12576 -0.61166,0.15834zM185.96829,195.73705c-0.05037,-0.20565 -0.11106,-0.3993 -0.17781,-0.50288c-0.10746,-0.16675 -0.59268,0.253 -0.60777,0.5405c-0.00882,0.16803 0.32136,0.47627 0.48074,0.4659c0.14226,-0.00925 0.34519,-0.33875 0.30483,-0.50352zM186.43239,193.94841c0.24703,0.48929 0.52146,1.63673 0.6474,2.20004c0,0 0.42383,-0.02757 0.61392,-0.03993c0.16484,-0.01072 0.49053,-0.46249 0.50483,-0.68296c0.01714,-0.26429 0.03417,-0.53261 0.05103,-0.80487c0.01164,-0.18788 -0.13735,-0.80514 -0.24362,-0.95879c-0.20339,-0.29407 -0.44667,-0.66707 -0.67495,-1.07154c-0.13311,-0.14704 -0.29003,-0.29825 -0.41188,-0.35008c-0.21726,-0.09242 -0.63706,-0.17979 -1.01315,-0.24545c-0.19742,-0.03447 -0.38941,0.90479 -0.27494,1.00807c0.28019,0.25279 0.63258,0.61122 0.80135,0.9455zM186.6483,200.16025c-0.24643,-0.27184 -0.70644,-0.43195 -1.14203,-0.52597c0.15936,0.55901 0.4205,1.33396 0.73009,1.71442c0.28758,0.35341 0.8889,0.6039 1.35482,0.75438c-0.27004,-0.74575 -0.62303,-1.59 -0.94288,-1.94284zM186.90255,186.46888c0.31474,0.09325 1.17987,0.09673 1.73198,0.0883c0.00589,-0.17461 0.01165,-0.35007 0.01728,-0.52638c0.00849,-0.26598 -0.40134,-0.99945 -0.61636,-1.10357c-0.32333,-0.15657 -0.61944,-0.3105 -0.75142,-0.40754c-0.14919,-0.1097 -0.36999,-0.19771 -0.5716,-0.26209c-0.13772,-0.04398 -0.35767,0.20598 -0.3541,0.42697c0.00401,0.24822 0.01801,0.53021 0.0652,0.76454c0.11721,0.58209 0.36897,0.98715 0.47902,1.01976zM187.7132,187.07006c-0.28727,-0.03182 -0.78886,-0.06424 -1.24047,-0.08969c0.17036,0.71749 0.68801,2.83085 1.04796,3.58481c0.07758,0.1625 0.2272,0.33444 0.39756,0.49486c0.16562,0.15596 0.53019,-0.01614 0.5408,-0.23493c0.04378,-0.90242 0.0848,-1.83588 0.12214,-2.79807c0.0079,-0.20373 -0.41427,-0.9067 -0.868,-0.95697zM186.09883,188.56131c-0.15274,-0.45432 -0.51538,-0.41945 -0.53311,-0.0819c-0.04957,0.94382 -0.09777,1.86188 -0.14443,2.7505c0.18084,0.10386 0.41587,0.22444 0.61563,0.27972c0.18562,0.05136 0.53225,0.09336 0.82842,0.12225c-0.23298,-0.67542 -0.43947,-2.09782 -0.7665,-3.07056zM187.18262,179.86025c0.20856,-0.17155 0.39058,-0.77006 0.51403,-1.28519c0.03466,-0.14462 -0.08056,-0.40092 -0.15374,-0.40092c-0.40406,0 -0.7017,0.11114 -1.13666,0.30515c-0.01608,0.30602 -0.03003,0.60955 -0.04189,0.91084c-0.00941,0.23941 0.23485,0.6948 0.35826,0.66889c0.17688,-0.03713 0.33912,-0.09934 0.46,-0.19877zM187.51515,180.86264c-0.22487,0.17959 -0.48265,0.34949 -0.73266,0.49904c-0.16304,0.09752 -0.46884,0.61553 -0.46818,0.7906c0.00097,0.25776 0.32723,0.9262 0.54889,1.04539c0.33643,0.1809 0.71395,0.40483 0.88674,0.58085c0.09571,0.09749 0.25008,0.16005 0.43078,0.19864c0.16255,0.03471 0.53318,-0.15418 0.53568,-0.25861c0.01291,-0.53948 -0.65013,-0.59702 -0.60467,-2.71612c0.00274,-0.1276 -0.40708,-0.29115 -0.59658,-0.1398zM187.88442,172.17677c0.40926,-0.3319 0.92598,-0.65202 1.30401,-0.87078c-0.27764,-0.02301 -0.60858,-0.03404 -0.83494,0.01185c-0.1088,0.02205 -0.24621,0.0694 -0.39157,0.12826c-0.17556,0.07109 -0.60341,0.66329 -0.6433,0.87449c-0.02812,0.1489 -0.05644,0.2974 -0.08488,0.44527c0.17711,-0.17964 0.39324,-0.3803 0.65068,-0.58908zM188.30453,174.97661c-0.13209,0.14633 -0.29821,0.35012 -0.48155,0.58552c0.01021,0.30237 0.06324,0.69206 0.25287,0.88736c0.13879,0.14292 0.4075,0.1964 0.69207,0.20684c0.15201,0.00557 0.46503,-0.38005 0.47126,-0.56401c0.01728,-0.50985 0.03369,-1.02201 0.04916,-1.53615c0.00352,-0.1171 -0.23753,-0.19782 -0.36916,-0.10536c-0.21846,0.15345 -0.44058,0.33295 -0.61466,0.5258zM187.50364,177.2724c0.14617,0.01073 0.47884,-0.07536 0.44174,-0.11246c-0.21572,-0.21572 -0.50743,-0.52407 -0.74216,-0.77516c-0.16333,0.22219 -0.32629,0.44723 -0.47986,0.66125c0.2452,0.10414 0.54294,0.20896 0.78029,0.22638zM186.84556,170.99519c-0.14403,0.14861 -0.27547,0.28172 -0.38157,0.38818c-0.05293,1.00698 -0.10562,2.00929 -0.1579,3.00423c0.15497,-0.92252 0.34828,-2.11235 0.53948,-3.39241zM187.08123,169.35592c0.24493,-1.7788 0.4556,-3.58685 0.53404,-4.99525c0.13192,-2.36851 1.24572,-6.43596 1.83702,-8.45803c0.02901,-1.19625 0.07443,-2.28407 0.13111,-3.2717c-0.47905,0.70691 -0.98312,1.56171 -1.12741,2.20757c-0.17074,0.76419 -0.87834,1.84569 -1.24679,2.37239c-0.21203,4.03087 -0.43099,8.19485 -0.64729,12.30937c0.15135,-0.01507 0.34052,-0.05771 0.51932,-0.16435zM188.19568,166.2226c-0.02723,0.59572 -0.10529,1.33255 -0.21671,2.14801c0.50755,-0.49427 1.15827,-0.97257 1.45775,-1.18479c0.02024,-2.13692 0.01923,-4.27878 -0.00784,-6.40168c-0.0014,-0.10971 -0.00267,-0.21877 -0.00382,-0.32718c-0.46884,1.17065 -1.11232,3.20518 -1.22938,5.76563zM188.27062,169.35014c-0.11069,0.17358 -0.28644,0.39498 -0.48988,0.63151c0.15615,0.1536 0.42896,0.40157 0.66574,0.51271c0.20848,0.09786 0.60708,0.20929 0.9367,0.29264c0.01438,-0.71639 0.02665,-1.43487 0.03663,-2.15452c-0.34007,0.07145 -0.85337,0.25378 -1.14919,0.71766zM188.11045,153.20236c0.0622,-0.30057 0.22686,-0.72706 0.43865,-1.19735h-1.06601c-0.03982,0.7566 -0.08004,1.5213 -0.12063,2.29276c0.20447,-0.16442 0.63866,-0.56706 0.74799,-1.09541zM188.24383,151.40364c0.22359,0.03634 0.41987,0.03535 0.5795,0.01921c0.26826,-0.54857 0.56748,-1.11063 0.82108,-1.57254c0.06306,-0.11488 0.2259,-0.77515 0.24963,-0.98849c0.01953,-0.17557 -0.04521,-0.70758 -0.1025,-0.81626c-0.11207,-0.21258 -0.23572,-0.44867 -0.36264,-0.69367c-0.41719,0.56888 -0.9246,1.25337 -1.19718,1.59362c-0.18448,0.23028 -0.43138,0.48758 -0.62335,0.67918c-0.0296,0.56237 -0.05948,1.13028 -0.08963,1.70314c0.19278,0.01052 0.45552,0.03199 0.72509,0.07581zM257.87101,195.78338c0.25573,-0.14411 0.66852,-0.27076 0.98231,-0.35431c-0.66821,-1.59128 -1.42371,-3.3858 -2.25165,-5.3454c-0.34641,-0.00923 -0.87962,0.01329 -1.1669,0.20985c-0.2225,0.15223 -0.17885,1.07984 -0.0917,1.90052c0.65146,1.4758 1.25886,2.84644 1.81256,4.09218c0.24604,-0.1901 0.52695,-0.39664 0.71539,-0.50283zM260.17945,199.79741c-0.07317,0.70517 -0.0143,2.54606 0.0131,3.2754c0.27017,0.59832 0.41601,0.91861 0.41822,0.92152c0.2172,0.28555 0.44976,0.87407 1.11114,0.40559c0.30572,-0.21655 0.44,-0.8171 0.38846,-1.16352c-0.00131,-0.00878 -0.60806,-1.47663 -1.67511,-4.0308c-0.10965,0.10898 -0.22472,0.29214 -0.25582,0.59181zM259.42843,200.25791c0.08731,-0.43656 0.17185,-1.39361 0.22391,-2.06452c-0.18671,0.04141 -0.37084,0.09083 -0.50808,0.14659c-0.23291,0.09463 -0.58194,0.30539 -0.85869,0.48269c0.33851,0.75809 0.6454,1.44372 0.91707,2.04949c0.09253,-0.18386 0.18338,-0.40212 0.2258,-0.61425zM251.02254,180.69471c0.08291,-0.78647 0.43991,-1.53048 0.65802,-1.92329c-0.36647,-0.07957 -1.1136,0.31722 -0.73473,-0.44603c0.07085,-0.14273 0.08712,-0.38168 0.0705,-0.65066c-1.03154,-1.27185 -2.55768,-3.06224 -3.20929,-3.36786c-0.13648,-0.06402 -0.30985,-0.07576 -0.4946,-0.05661c0.22027,0.84089 0.92287,1.92859 1.1799,2.52597c0.23238,0.54009 0.60158,0.91583 0.87547,1.42682c0.45748,0.85353 1.95267,0.16844 1.03531,1.16768c-0.40529,0.44146 -0.38331,0.64149 -0.15497,1.16907c0.02182,0.0504 0.04361,0.10075 0.06539,0.15106c0.26962,0.12312 0.68139,0.26571 0.70899,0.00386zM250.37511,176.02966c0.10441,0.09575 0.22517,0.18666 0.35199,0.271c-0.0029,-0.00708 -0.0058,-0.01399 -0.00867,-0.02069c-0.3239,-0.75504 -0.6516,-1.51794 -0.98265,-2.2876c-0.30985,-0.72036 -0.8236,-1.93416 -1.0558,-1.98656c-0.59914,-0.13519 -0.66432,-0.13896 -0.53451,-0.77299c0.05728,-0.27976 -0.32686,-0.75866 -0.74633,-0.86903c-0.41431,-0.10903 -0.41948,-0.238 -0.34323,-0.5782c-0.35848,-0.23993 -0.70945,-0.48134 -0.96948,-0.67442c-0.25165,-0.18686 -0.57,-0.43981 -0.89414,-0.7039c0.12211,0.40973 0.25528,0.80393 0.40189,1.17377c0.59156,1.4922 1.45042,-0.31322 1.24616,1.51357c-0.02141,0.1915 -0.00615,1.13544 0.25711,1.0334c0.84788,-0.32863 1.54281,-0.68875 0.47352,0.93375c0.82057,0.90839 2.18695,2.40197 2.80412,2.96792zM251.6149,180.22438c-0.31074,0.40042 -0.27871,1.81289 -0.23392,2.59925c0.17635,0.14415 0.32213,0.2799 0.3468,0.35197c0.29699,0.86755 0.86355,1.2009 1.31466,0.90113c0.40699,-0.27044 0.49524,-0.79596 0.4866,-1.23662c-0.40195,-0.94379 -0.81338,-1.90839 -1.23325,-2.8911c-0.2038,-0.01413 -0.485,0.02295 -0.68089,0.27537zM254.43194,186.19497c0,0.51308 0,1.54682 0,2.07776c0.07848,0.0411 0.1522,0.07172 0.2193,0.0892c0.3245,0.08451 0.82942,0.14121 1.29779,0.17836c-0.35861,-0.84734 -0.72905,-1.72143 -1.11023,-2.61953c-0.2243,-0.00419 -0.40686,0.05863 -0.40686,0.2742zM253.94741,187.94444l-0.13723,-3.01901c-0.17487,0.03807 -0.34661,0.11327 -0.49188,0.24681c-0.35878,0.3298 -0.43393,0.98582 -0.44236,1.40697c0.09597,0.21942 0.19138,0.43748 0.28624,0.65411c0.23889,0.23776 0.51734,0.49854 0.78524,0.71112zM246.69055,168.31776c0.147,0.11323 0.32405,0.24119 0.5148,0.37444c-0.00938,-0.44158 -0.08446,-0.93804 -0.13586,-1.06202c-0.58042,-1.39992 -1.17338,-2.82818 -1.7744,-4.25355c-0.52373,-0.6092 -1.89425,-2.19223 -2.59697,-2.8988c-0.25759,-0.259 -0.59664,-0.60253 -0.94922,-0.96078c1.43777,2.70176 2.30047,3.48584 2.51707,4.68395c0.14215,0.7863 0.29588,1.62024 0.47722,2.44239c0.53699,0.48506 1.40487,1.25651 1.94736,1.67436zM240.38975,153.37805c0.01898,-0.15351 0.03444,-0.30692 0.047,-0.45326c-0.90329,-1.34064 -1.63075,-1.79832 -3.4113,-5.87495l-0.8569,-0.02706c0.03487,0.12095 0.06906,0.24254 0.10253,0.36479c0.31428,1.14801 1.88221,3.4887 2.42111,5.31377zM240.8625,155.74715c-0.11374,0.16326 -0.26526,0.43165 -0.42764,0.74032c0.53347,0.56277 1.40181,1.46815 1.91806,1.95047c0.34454,0.32189 0.86226,0.75169 1.29522,1.10207c-0.58145,-1.32512 -1.16652,-2.62211 -1.75135,-3.86418c-0.22595,-0.1084 -0.76741,-0.31175 -1.03429,0.07132zM239.76921,153.96132c-0.2665,-0.04322 -0.58257,0.20386 -0.83008,0.27411c0.3503,0.40626 0.99008,0.94854 1.26435,0.40235c0.06862,-0.13665 0.12506,-0.31988 0.17145,-0.52635c-0.24503,-0.07018 -0.4669,-0.12759 -0.60572,-0.1501zM235.20834,142.01666c0.29991,0 0.74882,0.03907 0.96463,-0.18643c-0.3477,-0.62447 -0.61014,-1.02357 -1.0737,-1.13398c-0.27487,-0.06547 -0.60851,-0.25461 -0.96151,-0.19796c0.3299,0.92658 0.56092,1.51838 1.07058,1.51838zM223.91684,116.34048c0.1872,-0.20991 0.26514,-0.71455 0.29426,-1.20605c-0.16011,-0.36296 -0.2456,-0.55353 -0.24791,-0.55624c-0.22153,-0.26084 -0.59583,-0.35769 -0.92541,-0.21336c-0.33623,0.14723 -0.51955,0.4989 -0.46802,0.84531c0.00083,0.00561 0.25856,0.52961 0.71819,1.50272c0.25065,-0.08904 0.48386,-0.20978 0.62889,-0.37239zM224.52623,117.37941c-0.19309,0.3401 -0.36297,0.66666 -0.4936,0.9278c0.56582,1.22419 1.27376,2.78376 2.08425,4.62886l1.43085,-0.0309c-1.08441,-2.57415 -1.97223,-4.63967 -2.59303,-6.06965c-0.17783,0.19178 -0.33903,0.38637 -0.42847,0.54389zM197.86939,222.59091c0.05627,0 0.11247,0.00024 0.16861,0.0007c0.00672,-0.30514 0.00287,-0.92099 -0.1053,-1.51254c-0.14046,-0.00271 -0.28124,-0.00408 -0.42234,-0.00408c-0.56225,0 -1.11946,0.02163 -1.67082,0.0641c-0.19109,0.63305 -0.3115,1.29072 -0.36108,1.58917c0.78397,-0.09074 1.58185,-0.13736 2.39094,-0.13736zM260.40533,279.84102c0,-1.18712 0.10534,-2.3461 0.30707,-3.46932c-0.34669,-0.27596 -1.04075,-0.7999 -1.71589,-1.14124c-0.13038,0.56063 -0.23909,1.13006 -0.32524,1.7074c0.47246,0.83369 1.09552,1.94224 1.73421,3.10463c-0.00011,-0.06698 -0.00016,-0.13413 -0.00016,-0.20146zM280.59458,260.17033c1.87078,0 3.66924,0.24675 5.36629,0.7103c-0.28785,-0.38914 -0.74289,-0.9731 -1.31797,-1.60779c-1.5315,-0.34388 -3.12443,-0.52533 -4.75973,-0.52533c-1.74949,0 -3.44662,0.20383 -5.06921,0.58931c0.69793,0.40824 1.19997,0.96392 1.4536,1.28357c1.39619,-0.29507 2.84434,-0.45006 4.32702,-0.45006zM300.17885,279.84102c0,1.02679 -0.07508,2.03552 -0.22014,3.0207c0.52297,0.48426 0.97329,1.08353 1.22012,1.43676c0.10246,-0.58756 0.18217,-1.18385 0.23822,-1.78788c-0.34088,-1.1499 -0.82135,-2.09515 -1.23848,-2.77809c0.00018,0.03614 0.00028,0.07232 0.00028,0.10851zM264.04217,292.87449c-0.96175,-1.03269 -1.67134,-2.1167 -2.19421,-3.26324c-0.29642,0.29465 -0.58537,0.54226 -0.81801,0.72851c1.02449,1.87261 2.32113,3.58157 3.83418,5.07604c-0.03271,-0.67881 0.00662,-1.29605 0.04363,-1.68332c-0.3054,-0.28064 -0.59454,-0.56693 -0.86559,-0.85798zM195.99464,246.73069c0.10522,0.43747 0.49905,0.76255 0.96881,0.76255c0.48493,0 0.88895,-0.34642 0.97809,-0.80528c0.01201,-0.06186 0.00971,-6.37737 -0.00659,-6.44886c-0.10103,-0.44326 -0.49764,-0.77405 -0.9715,-0.77405c-0.48048,0 -0.88152,0.34008 -0.97555,0.79267c-0.01367,0.06577 -0.01129,6.39798 0.00675,6.47298zM275.92792,281.02519c-0.33738,0.29769 -0.4404,0.79786 -0.22059,1.21301c0.2269,0.42856 0.72211,0.62353 1.16935,0.48759c0.06029,-0.01833 5.64066,-2.97553 5.69622,-3.02339c0.34447,-0.2967 0.45123,-0.80199 0.2295,-1.22078c-0.22483,-0.42463 -0.71305,-0.61992 -1.15703,-0.49125c-0.06452,0.0187 -5.65962,2.98377 -5.71747,3.03481zM192.9781,66.52312c0.02696,-0.00145 0.05524,-0.00257 0.08454,-0.00339c-0.00838,-0.12203 -0.01263,-0.24533 -0.01263,-0.36972c0,-2.04164 1.14532,-3.84674 2.87614,-4.58976c0.0143,-0.08937 0.02707,-0.17709 0.03661,-0.25659c0.02061,-0.17164 -0.00172,-0.42175 -0.03839,-0.67018c-2.20046,0.78968 -3.77436,2.8943 -3.77436,5.36653c0,0.20613 0.01051,0.41013 0.03105,0.6114c0.26596,-0.03966 0.55333,-0.07517 0.79705,-0.08828zM193.25844,68.28819c-0.11948,0.07892 -0.29747,0.2182 -0.48461,0.37141c0.65561,1.3146 1.78361,2.34694 3.16991,2.83415c0.04673,-0.10146 0.11707,-0.20938 0.1336,-0.37971c0.01654,-0.17033 -0.01405,-0.19456 -0.05579,-0.42186c-1.1635,-0.44991 -2.0733,-1.36071 -2.56543,-2.51658c-0.06827,0.03391 -0.1354,0.07144 -0.19768,0.11258zM197.30486,71.46362c-0.02199,0.1106 -0.06483,0.21412 -0.11753,0.3078c0.18475,0.01889 0.37244,0.02858 0.56267,0.02858c1.8465,0 3.59113,-0.91241 4.71812,-2.30215c-0.06216,-0.15378 -0.14443,-0.35394 -0.18217,-0.43106c-0.05349,-0.10931 -0.22749,-0.26089 -0.33055,-0.34461c-0.91662,1.36812 -2.52167,2.27782 -4.2554,2.27782c-0.11887,0 -0.23635,-0.00428 -0.35232,-0.01269c-0.00016,0.14912 -0.01082,0.31534 -0.04282,0.47631zM202.70857,68.798c0.03405,0.05909 0.07708,0.14111 0.11476,0.21478c0.12882,-0.19564 0.1344,-0.20335 0.2388,-0.41275c0.07831,-0.15708 0.15429,-1.50876 0.32446,-0.72619c0.03553,0.16339 0.36343,-1.20336 0.36343,-1.87385c0,-3.14802 -2.75198,-5.7 -5.9,-5.7c-0.30313,0 -0.60073,0.02366 -0.89107,0.06924c0.02675,0.27562 0.0478,0.60055 0.03805,0.88428c0.22804,-0.03522 0.46268,-0.05351 0.70302,-0.05351c2.67858,0 5.05,2.27142 5.05,4.95c0,0.74395 -0.18293,1.44877 -0.50457,2.07882c0.13132,0.14313 0.37577,0.41755 0.46313,0.56918zM213.25,69.5c0.01936,0.04967 0.99107,1.43505 2.21542,4.03142c0.28602,0.60654 0.3076,1.32555 0.6519,2.05608c3.72325,7.89999 10.7712,22.8835 19.3514,41.35804c0.18686,0.40233 1.12656,1.02025 1.4361,1.80953c0.79175,2.01889 0.06987,1.59423 0.57221,2.68152c5.83939,12.63909 12.26343,26.62905 18.96126,41.08845c0.32207,0.6953 -0.05865,1.60368 0.78981,2.51817c0.36206,0.39024 0.59494,0.47937 0.8284,0.9835c3.64884,7.87921 7.19245,15.84782 10.84787,23.73882c0.11428,0.2467 0.7624,0.28079 1.0981,0.5692c0.50393,0.43293 0.73421,1.13152 0.83774,1.52559c0.25847,0.98381 -0.75838,0.44698 -0.59817,0.79281c1.74649,3.77002 3.4827,7.51754 5.20014,11.22421c0.16094,0.34735 1.25362,0.25292 1.65947,0.79573c1.64036,2.19396 3.11624,6.72018 4.22668,9.16306c0.7534,1.65741 -0.6723,1.29294 -0.02572,2.68809c2.17434,4.6917 4.29982,9.27729 6.35744,13.71573c0.30941,0.66741 -0.27049,0.64151 0.18783,1.20732c0.88937,1.09795 1.43333,2.28947 1.77891,3.03483c5.51976,11.90509 10.48274,22.60306 14.49676,31.24614c4.17532,8.9904 3.09023,11.60766 2.90762,16.07927c-0.11901,2.91431 -1.06025,5.83852 -2.13977,8.179c-0.57471,1.01686 0.87547,0.64289 0.25106,1.75876c-0.14137,0.19986 -0.46727,0.9394 -0.93012,1.29251c-0.937,0.88271 -1.03142,0.04064 -1.22022,0.35074c-1.68577,2.55719 -3.57903,4.81524 -5.51098,6.49215c-0.38403,0.33333 -0.95941,0.12897 -1.33285,0.42648c-0.34395,0.274 -0.48702,1.05261 -0.8165,1.29594c-1.91686,1.41566 -3.54444,2.30996 -4.36467,2.65625c-7.05929,2.98032 -12.01657,1.77353 -12.22242,2.1907c-1.76765,3.58231 -5.76581,1.87358 -7.47642,0.94097c-5.19659,-2.83314 -3.15903,-1.17558 -4.97391,-2.11296c-1.12619,-0.58168 -2.1936,-1.71445 -3.44069,-2.31943c-6.22687,-3.02074 -33.26202,-15.54093 -33.5613,-15.39314c-6.20549,3.06437 -6.75573,-3.61705 -10.42015,-5.09776c-6.49622,-2.62496 -20.67728,-9.96164 -25.12597,-11.89025c-18.1456,-8.73271 -12.46983,-7.16551 -14.25144,-8.75617c-1.8438,-1.64617 -3.29393,-3.19657 -4.36994,-4.59013c-0.61935,-0.80212 -1.18891,-0.26404 -1.77346,-1.21581c-0.62267,-1.01384 0.22341,-1.20402 -0.59521,-2.75122c-2.71185,-5.12546 -2.69447,-11.11567 -2.62843,-12.78847c0.2042,-5.17264 0.63194,-9.50222 0.84286,-11.73176c0.02114,-0.22353 0.26233,-0.98151 0.27868,-1.16156c0.03947,-0.43482 -0.15858,-0.18358 -0.15597,-0.33954c0.00442,-0.26376 0.01579,-0.5623 0.03288,-0.88858c0.02728,-0.52089 -0.7575,0.06379 -0.72816,-1.22139c0.05416,-2.37202 0.2389,-5.77751 0.42027,-7.8374c0.13382,-1.51982 1.30263,-0.77984 1.32353,-2.07529c0.05408,-3.35046 0.62622,-8.65166 1.13782,-14.15034c0.02302,-0.24749 0.6834,-0.26475 0.55394,-0.50579c-0.21196,-0.39466 -0.30525,-1.07495 -0.27092,-1.43827c0.23032,-2.43745 0.35591,-4.76337 0.57964,-7.04799c0.04629,-0.47272 0.48092,-0.10559 0.58149,-1.28614c0.03207,-0.37643 -0.62677,-0.72742 -0.27152,-0.95257c0.6024,-0.38179 -0.00485,-0.86839 0.02393,-1.16104c0.44114,-4.48608 0.77619,-7.90439 0.81306,-8.74415c0.02733,-0.62249 -1.43065,-0.40667 -1.53693,-2.87116c-0.18916,-4.38655 2.20445,-4.66356 2.30743,-6.63536c0.24238,-4.641 3.91413,-46.474 4.32433,-48.58051c0.2639,-1.35521 -1.25127,-0.40337 -1.02152,-2.65324c0.16367,-1.60271 0.35595,-5.7971 0.9082,-7.9184c0.55301,-2.1242 1.46588,-2.17451 1.48137,-2.62186c0.1533,-4.4284 0.44907,-6.88627 0.44688,-8.55181c-0.00154,-1.17191 -1.15461,-1.3054 -1.04174,-4.8458c0.23904,-7.49788 2.32581,-8.99734 2.3958,-9.61809c0.69613,-6.17409 0.86352,-15.11968 1.53019,-20.47096c0.78518,-6.30255 6.87013,-12.33333 12.58333,-12.5c4.37801,-0.12772 10.25,3.14872 15.58334,16.83333zM182.076,97.53744c0.45386,1.55955 0.78379,-3.14681 0.87951,-4.21921c0.32907,-3.68663 0.45594,-5.26439 0.14517,-4.71257c-1.20163,2.13372 -1.18312,4.36053 -1.18312,4.63667c0,0.27614 -0.33823,2.58843 0.15844,4.29511zM226.29305,287.53318c1.16774,0.05192 3.52888,-0.72443 -0.72986,-1.97315c-0.79407,-0.23284 -3.23784,-1.83709 -3.0545,-1.24354c0.26779,0.86688 1.88648,3.08547 3.78436,3.21669zM175.44094,177.87875c0.00227,-0.27614 0.21662,-2.02311 0.39474,-2.55263c0.5088,-1.51256 1.08246,-3.4609 0.02632,-2.18421c-0.7029,0.84967 -1.41072,1.90853 -1.34211,3.28948c-0.00751,1.90813 0.90807,3.02631 0.92105,1.44736zM275.44345,307.84389c1.73608,-0.07621 2.26159,-1.63586 1.98683,-1.60821c-1.20873,0.12165 -3.33833,0.30496 -5.08187,0.5c-0.27443,0.0307 0.95401,1.20219 3.09504,1.10821zM173.95664,255.97369c0.48667,0.26316 0.66637,-0.06908 0.13158,-0.71052c-0.55939,-0.67094 -0.52631,-0.32878 -0.52631,-0.05264c0,0.27614 0.15183,0.63181 0.39473,0.76316zM188.39204,145.22589c-0.15296,-0.36921 -0.51098,-0.81967 -0.52644,-0.52603c-0.071,1.34834 -0.14454,2.7837 -0.22009,4.2191c0.1871,-0.19861 0.40936,-0.44177 0.56485,-0.635c0.25895,-0.3218 0.72613,-0.96569 1.00296,-1.35095c-0.3317,-0.64915 -0.65386,-1.303 -0.82128,-1.70712zM189.95379,144.42652c-0.13274,0.09415 -0.25872,0.14716 -0.37759,0.16628c0.18505,0.20076 0.3764,0.32844 0.54197,0.40956c0.13849,0.06786 0.40763,-0.19823 0.43582,-0.332c0.26191,-1.24304 0.25279,-1.01984 -0.6002,-0.24384zM189.10871,143.49332c0.27389,0.71544 0.76566,-3.12076 0.79029,-3.57517c0.06832,-1.26085 0.71465,-1.58049 0.81667,-2.69777c0.0306,-0.33511 -0.13893,-0.99039 -0.25626,-0.98627c-0.35623,0.01252 -0.71729,0.04625 -0.95606,0.12246c-0.25349,0.08091 -0.57271,0.27008 -0.86698,0.47006c-0.13009,0.0884 -0.4293,0.62468 -0.44107,0.84783c-0.0373,0.7075 -0.05222,1.56579 -0.08203,2.34412c-0.00808,0.21108 0.08362,0.92986 0.14718,1.14127c0.13012,0.43284 0.27755,0.91728 0.41784,1.36517c0.20882,0.66665 0.26089,0.52544 0.43043,0.96831zM190.86143,129.7218c-0.33868,-0.40155 -0.79015,-1.03888 -1.19206,-1.62179c-0.32242,-0.46762 -0.83377,-1.33806 -0.86178,-1.18691c-0.00148,0.00799 -0.07414,1.3732 -0.19922,3.7383c-0.01461,0.27634 0.25312,1.1974 0.43647,1.37652c0.24049,0.23494 0.49967,0.45731 0.69855,0.54948c0.20188,0.09356 0.49129,0.15269 0.78561,0.18999c0.19592,0.02483 0.59824,-0.29363 0.61195,-0.46092c0.04348,-0.53041 0.08388,-1.03272 0.12107,-1.50231c0.01747,-0.22063 -0.19885,-0.84315 -0.40061,-1.08237zM191.63855,126.94253c-0.05537,-0.76649 -0.08764,-2.12618 -1.43293,-1.85885c-0.1467,0.02915 -0.28246,0.08456 -0.40717,0.16042c0.20568,0.40145 0.52209,0.95511 0.85504,1.29797c0.1967,0.20255 0.98527,0.40338 0.98506,0.40046zM231.35306,132.1072c-0.98395,-2.42326 -1.90665,-4.66089 -2.74412,-6.66969c-0.41258,0.24184 -0.81612,0.48623 -1.11485,0.68424c1.13191,2.66017 2.39026,5.72227 3.69857,9.08985c0.10798,0.27794 0.22031,0.55514 0.33626,0.83201l0.94826,0.03315c-0.63927,-1.35884 -0.28468,-1.90222 -1.12411,-3.96956zM301.51525,280.37958c0,-4.72744 -1.51645,-9.1007 -4.08946,-12.65985c0.44993,1.77521 0.77114,3.18187 0.82986,3.44085c1.00178,2.10905 1.64275,4.43967 1.84994,6.91679c0.3871,0.69076 0.92345,1.70901 1.40355,2.83606c0.00406,-0.17739 0.0061,-0.35534 0.0061,-0.53384zM186.53074,224.09383v1.93187c0.52944,-0.35693 1.0773,-0.68928 1.6419,-0.99549l-0.88246,-1.36894c-0.25635,0.13916 -0.50953,0.28339 -0.75944,0.43256zM199.6128,221.17671c0.70166,0.68012 1.20774,1.35208 1.43229,1.66911c3.39069,0.55219 6.45449,1.97728 9.03372,4.03766l0.02824,-1.72258c-3.00406,-2.18274 -6.5964,-3.60504 -10.49425,-3.98418zM199.69369,222.67406c-0.11494,-0.32886 -0.39059,-0.97445 -0.93653,-1.56344c-0.14005,-0.00803 -0.28047,-0.01471 -0.42124,-0.02004c0.13182,0.60717 0.17191,1.20096 0.1841,1.51081c0.39488,0.01275 0.78618,0.03708 1.17366,0.07267zM194.902,222.80327c0.07478,-0.33048 0.23124,-0.97032 0.45498,-1.62155c-1.15285,0.1149 -2.27882,0.32107 -3.3706,0.61118c-0.93928,0.92998 -1.72591,1.9484 -2.0551,2.39177c1.56367,-0.66007 3.23066,-1.12986 4.97072,-1.38141zM187.40412,223.59987l0.88251,1.36901c0.12896,-0.06886 0.25879,-0.13637 0.38945,-0.2025c0.32015,-0.55151 0.93595,-1.52698 1.79699,-2.51048c-1.06349,0.36914 -2.08895,0.81961 -3.06895,1.34396zM298.7063,287.48551c0.52997,-0.11897 1.27828,-0.34652 1.90776,-0.76302c0.14102,-0.48034 0.26628,-0.96808 0.3752,-1.46263c-0.28912,-0.43269 -0.72774,-1.03562 -1.18858,-1.47296c-0.24933,1.28126 -0.61804,2.51836 -1.09438,3.69861zM297.65868,292.91052c-0.12685,-0.56642 -0.30713,-1.42882 -0.4705,-2.41977c-1.35104,2.19336 -3.1112,4.0999 -5.17914,5.60998c-0.25905,0.99214 -0.67528,2.15844 -1.33288,3.1246c2.78907,-1.54302 5.1692,-3.70653 6.98253,-6.31481zM290.43537,297.13752c-0.32916,0.5641 -1.49982,2.4019 -3.45592,3.68352c0.61494,-0.197 1.2164,-0.42126 1.80317,-0.67139c1.37649,-0.87171 2.10261,-2.3406 2.48125,-3.5308c-0.27147,0.17955 -0.5477,0.35252 -0.82849,0.51867zM278.51263,301.74931c-2.54116,-0.77401 -3.46088,-2.33076 -3.64871,-2.70207c-1.4919,-0.41251 -2.97078,-0.96866 -4.37087,-1.63594c-0.60758,0.36409 -1.25427,0.72184 -1.859,0.99876c2.917,1.84251 6.28791,3.02676 9.87858,3.33926zM265.55226,294.29641c-0.04215,0.47804 -0.06865,1.14347 0.01421,1.78361c0.75068,0.67976 1.54846,1.30919 2.38733,1.88281c0.63936,-0.15589 1.36949,-0.46089 2.04859,-0.79156c-1.64285,-0.82459 -3.16316,-1.80113 -4.45013,-2.87485zM260.53607,289.38059c0.27013,-0.26677 0.56921,-0.58121 0.85441,-0.92088c-0.24905,-0.72721 -0.43627,-1.47919 -0.57665,-2.25853c-0.46507,-0.77756 -1.40605,-2.3743 -2.29021,-4.01723c0.24041,2.55291 0.93964,4.97769 2.01245,7.19664zM260.43034,281.97287c-0.67772,-1.00802 -1.39805,-2.03064 -1.97451,-2.83591c-0.01321,0.27753 -0.02127,0.55653 -0.02409,0.8369c0.79279,1.97145 1.6457,3.25492 2.09002,3.852c-0.0453,-0.60184 -0.07391,-1.21918 -0.09143,-1.85299zM259.19356,274.44971c0.67987,0.20142 1.33425,0.53746 1.75958,0.7812c0.37165,-1.52987 0.92458,-2.98519 1.63459,-4.34525c-0.73327,0.06311 -1.4683,0.05781 -2.08626,0.02874c-0.53422,1.12614 -0.97352,2.30791 -1.30791,3.53531zM261.63184,268.83829c0.38088,0.15139 1.15565,0.41451 1.91939,0.40469c0.08573,-0.13095 0.173,-0.26081 0.26179,-0.38956c-0.43975,-0.5633 -0.83425,-1.09695 -1.14839,-1.5331c-0.36525,0.48992 -0.70992,0.99631 -1.03279,1.51797zM263.00536,266.87563c0.30096,0.50903 0.66935,1.09572 1.05572,1.62644c0.32246,-0.44619 0.66347,-0.87832 1.02189,-1.2954c-0.4447,-0.46125 -0.92668,-0.89461 -1.32531,-1.234c-0.25888,0.29383 -0.50975,0.59492 -0.7523,0.90296zM264.22013,265.46455c0.28055,0.30049 0.71696,0.77478 1.21632,1.34188c0.11663,-0.12851 0.23496,-0.2555 0.35495,-0.38093c0.15013,-0.88898 0.24392,-1.8859 0.30193,-2.72606c-0.65972,0.55024 -1.28526,1.13975 -1.8732,1.76511zM266.86575,263.08502c-0.04061,0.73831 -0.09904,1.60368 -0.18165,2.46425c1.26213,-1.16328 2.67804,-2.16715 4.21325,-2.98209c0.02193,-0.37962 0.09418,-1.23659 0.32169,-2.03152c-1.55905,0.67917 -3.01853,1.53733 -4.35329,2.54937zM273.35766,261.46314c0.0204,-0.3222 0.08107,-1.00118 0.25585,-1.80414c-0.69148,0.20725 -1.36769,0.44807 -2.02681,0.72059c-0.23703,0.66134 -0.18545,1.49488 -0.13869,1.90593c0.61918,-0.30494 1.25644,-0.57967 1.90964,-0.82238zM285.55035,259.49744c0.56898,0.65729 1.01282,1.24642 1.30061,1.64911c0.37342,0.12129 0.74145,0.25327 1.10376,0.39562c0.02314,-0.32464 0.06462,-0.7371 0.13897,-1.18207c-0.82353,-0.33811 -1.67254,-0.62689 -2.54334,-0.86265zM296.85078,268.68967c-0.06908,-0.53858 -0.19344,-1.31795 -0.41218,-2.23437c-1.67613,-1.99078 -3.70476,-3.67498 -5.98972,-4.95639l0.57871,1.57971c2.32324,1.4351 4.3045,3.3468 5.82319,5.61105z"/></g></g></svg>