<svg version="1.1" xmlns="http://www.w3.org/2000/svg" xmlns:xlink="http://www.w3.org/1999/xlink" width="296.19286" height="76.15744" viewBox="0,0,296.19286,76.15744"><g transform="translate(-91.39105,-141.76585)"><g fill="#000000" stroke="none" stroke-width="0" stroke-miterlimit="10"><path d="M149.52316,162.14693c-0.23889,0.24858 -0.39183,0.46294 -0.4897,0.63388c1.21279,1.54978 2.2616,3.23408 3.1203,5.02678c0.09136,0.19072 0.36928,0.60834 0.89373,0.88694c0.23522,0.12495 0.63064,0.23253 0.87047,0.25039c0.47208,0.03516 0.44017,0.23366 0.29951,0.248c-0.89687,0.09144 -1.2425,0.50478 -1.11671,0.84163c0.69906,1.8719 1.19836,3.84121 1.47197,5.88199c0.13231,0.04733 0.2753,0.0966 0.42983,0.14773c0.74161,0.24541 1.17839,0.41267 1.43557,0.52415c-0.27462,-2.50724 -0.85176,-4.87301 -1.74337,-7.20668c-0.02752,-0.07205 -0.16084,-0.14666 -0.21123,-0.28544c-0.03543,-0.09757 0.00982,-0.26653 -0.01016,-0.31685c-0.64869,-1.63357 -1.43415,-3.19512 -2.34284,-4.66976c-0.16657,-0.27032 -0.89484,-0.05981 -0.91031,-0.6428c-0.01095,-0.4127 -0.06395,-0.84298 -0.30521,-1.17695c-0.13636,-0.18876 -0.27485,-0.37583 -0.41546,-0.56116c-0.25232,-0.01122 -0.62518,0.05267 -0.9764,0.41815zM147.59675,159.68881c0.22884,-0.25502 0.41064,-0.48708 0.55495,-0.69323c-2.51935,-2.59542 -5.50949,-4.72296 -8.84416,-6.24381c-0.37948,-0.17307 -2.17505,0.14906 -1.88775,-0.15568c0.28061,-0.29764 -0.18078,-0.69744 -0.64777,-0.85931c-3.02394,-1.04817 -6.28211,-1.61711 -9.6929,-1.61711c-0.53502,0 -1.06653,0.01368 -1.59419,0.04071c0.07008,0.26429 0.43928,0.66401 1.89278,0.94447c0.54117,0.10442 1.23238,0.22757 2.49961,0.64432c0.6156,0.20245 1.05958,0.53679 1.33471,0.797c1.10492,0.14861 2.18887,0.36337 3.24774,0.64018c0.5445,0.14235 1.90949,-0.29387 2.46242,-0.37368c0.34998,-0.05052 -0.00733,0.2132 -0.07321,0.51182c-0.06864,0.31116 0.14999,0.6602 0.33753,0.73111c3.55378,1.34374 6.75339,3.40849 9.42037,6.01579c0.34786,-0.03879 0.77006,-0.1376 0.98988,-0.38257zM123.09924,151.66949c-0.52312,-0.432 -0.90922,-0.80149 -1.19377,-1.11407c-4.53129,0.77385 -8.40798,2.37717 -11.96935,4.92515c0.05105,0.5615 -0.08432,1.23863 -0.32006,2.43986c-0.15369,0.78319 0.12026,0.74224 0.4257,0.56337c1.1795,-0.95152 2.45423,-1.82667 3.81779,-2.62367c0.58128,-0.33975 0.65619,-0.96471 1.41799,-1.72161c0.56776,-0.56411 4.07505,-1.90263 5.76181,-2.11922c0.86071,-0.11052 1.6448,-0.09959 2.41563,-0.04236c-0.10836,-0.09841 -0.22666,-0.20085 -0.35575,-0.30745zM156.04359,177.23152c-0.59253,-0.23907 -1.05393,-0.4498 -1.38581,-0.6114c0.10458,0.97071 0.15825,1.95667 0.15825,2.95516c0,0.36396 -0.00713,0.72624 -0.02126,1.08673c0.20717,-0.15566 0.46202,-0.32692 0.77386,-0.50785c0.41945,-0.24336 0.77041,-0.43893 1.05299,-0.59201c-0.01179,-0.72539 -0.04619,-1.43684 -0.10346,-2.13663c-0.14631,-0.06064 -0.30437,-0.12534 -0.47457,-0.19401zM155.42475,182.8258c-0.34785,0.12905 -0.62534,0.25241 -0.84661,0.36768c-0.5878,4.43464 -2.24112,8.53291 -4.69424,12.02909c0.08718,0.17953 0.19043,0.37831 0.31264,0.59802c0.28842,0.5185 0.47299,0.88754 0.59062,1.14973c1.7814,-2.55463 3.30773,-5.43833 4.35265,-8.46834c0.19785,-0.5737 0.02727,-1.75538 0.54022,-2.45246c0.31379,-0.42643 0.62594,-1.90099 0.80166,-3.49391c-0.23356,0.01409 -0.57103,0.08994 -1.05694,0.2702zM149.86348,197.55825c-0.28173,-0.63972 -0.4646,-1.15265 -0.57887,-1.51446c-0.70181,0.92512 -1.4613,1.80407 -2.27312,2.63149c0.24631,0.02528 0.52304,0.06529 0.82904,0.12607c0.59923,0.11902 1.06431,0.18529 1.40444,0.22206c0.27256,-0.33712 0.5412,-0.682 0.80525,-1.03413c-0.05729,-0.13458 -0.11944,-0.27823 -0.18673,-0.43104zM146.2902,200.46536c-0.34414,-0.13211 -0.63816,-0.22022 -0.88879,-0.27613c-3.04851,2.64343 -6.68929,4.62188 -10.69664,5.70969c-2.28251,0.6196 -0.72356,0.95024 -7.16264,0.95024c-2.20253,0 -4.34408,-0.26108 -6.39539,-0.75397c-0.79645,0.30284 -1.72957,0.59006 -2.47855,0.6276c-1.59127,0.07976 -2.62332,0.24765 -3.27513,0.40659c3.56713,1.49525 7.51233,2.31763 11.68606,2.31763c2.70083,0 5.30595,-0.33818 7.77486,-0.97602c1.24755,-0.32231 0.32859,-0.79576 3.53878,-1.4744c2.84396,-0.60121 6.19132,-2.85589 9.23651,-6.11365c-0.28771,-0.05567 -0.7125,-0.17704 -1.33907,-0.41757zM115.13739,206.1473c1.77599,-0.00299 3.47766,-0.32674 4.32135,-0.51592c-3.83108,-1.1872 -7.30084,-3.19607 -10.2033,-5.82064c-0.35943,0.26906 -0.70064,0.55069 -0.9639,0.81904c-0.46322,0.47218 -0.79318,0.97775 -1.01342,1.38278c1.95551,1.74597 4.15252,3.22978 6.54143,4.40183c0.42825,-0.15509 0.88571,-0.26637 1.31784,-0.2671zM105.77062,198.57854c0.43731,-0.42932 0.80671,-0.83534 1.1117,-1.19702c-1.95138,-2.26207 -3.53755,-4.84805 -4.66693,-7.66637c-0.41197,-0.52334 -1.0999,-1.35957 -1.66655,-1.86417c-0.54738,-0.48745 -1.55924,-1.25071 -2.41889,-1.88127c1.02632,5.10973 3.33087,9.70092 6.57937,13.43928c0.30388,-0.17233 0.65847,-0.43498 1.0613,-0.83044zM100.1257,186.05247c0.39411,0.22113 0.7535,0.24033 0.97149,0.22244c-0.06394,-0.25314 -0.12432,-0.5077 -0.18112,-0.7636c-0.22872,-0.32908 -0.67198,-0.94925 -1.00748,-1.31056c-0.5002,-0.53868 -1.62675,-1.62396 -2.31161,-2.27762c0.05145,0.79728 0.13315,1.58497 0.24399,2.36197c0.56985,0.54704 1.40958,1.27633 2.28474,1.76737zM99.48406,181.66017c0.28391,0.20267 0.65734,0.50562 0.92768,0.73011c-0.09489,-0.92541 -0.1435,-1.86453 -0.1435,-2.815c0,-1.93448 0.16606,-3.78287 0.4888,-5.54252c0.06999,-0.38159 -1.15503,-0.13613 -0.78727,-0.84911c0.4932,-0.95618 1.55258,-2.34841 1.90333,-3.33068c0.72468,-2.02938 1.68566,-3.91453 2.86419,-5.65021c-0.76656,0.64371 -1.65382,1.40738 -2.24536,1.97521c-0.9554,0.91711 -2.56794,2.65547 -3.44616,3.61229c-0.35514,1.01462 -0.65694,2.05569 -0.90211,3.12001c-0.08529,0.37025 0.27246,0.75533 0.50054,1.06232c0.67163,0.90401 -0.6897,0.79091 -0.74301,1.13282c-0.24314,1.55911 -0.3692,3.16042 -0.3692,4.79448c0,0.14904 0.00105,0.29779 0.00314,0.44624c0.61053,0.40268 1.50523,0.99731 1.94893,1.31404zM106.23741,160.73132c0.09267,0.08608 0.6216,0.1703 0.79407,0.11682c0.24583,-0.07622 0.47537,-0.16611 0.67454,-0.25351c0.44993,-0.45624 0.91843,-0.89851 1.40497,-1.32666c0.09094,-0.6387 0.219,-1.56236 0.03032,-1.90029c-0.18868,-0.33793 -0.74039,-0.53682 -1.16226,-0.42715c-0.9275,0.76988 -1.8062,1.59572 -2.63112,2.47269c0.0746,0.31651 0.29789,0.76854 0.88949,1.31809zM103.37504,164.20801c0.47659,-0.3507 1.36171,-0.85004 2.0983,-1.24693c-0.05519,-0.14631 -0.12644,-0.32052 -0.21382,-0.50595c-0.05474,-0.11615 -0.44819,-0.35048 -0.59401,-0.34374c-0.68191,0.03152 -1.15586,-0.03651 -1.47451,-0.12417c-1.03405,1.38866 -1.94792,2.87332 -2.72695,4.43972c0.60379,-0.46689 2.13474,-1.64771 2.911,-2.21893zM108.99807,156.65409c0.26063,0.12256 0.47469,0.35787 0.47469,0.2198c0,-0.06709 -0.03974,-0.55892 -0.08059,-0.83687c-0.00895,-0.0609 -0.15105,-0.08723 -0.21299,-0.04104c-0.1747,0.13029 -0.34789,0.26247 -0.51951,0.39651c-0.05394,0.04213 -0.02532,0.15564 0.03702,0.16977c0.12227,0.02771 0.26376,0.07414 0.30138,0.09184zM91.39105,179.52227c0,-7.957 2.23905,-15.22603 6.14172,-21.21516c0.40171,-0.61648 -0.35492,-1.00989 0.70768,-2.35779c0.75691,-0.96013 1.45421,-0.6323 1.93214,-1.20061c1.99068,-2.36712 4.27456,-4.46788 6.80403,-6.25332c0.57792,-0.40793 -0.2056,-0.93681 0.9471,-2.27321c0.92897,-1.07702 3.29037,-0.33274 4.59251,-0.94146c5.2193,-2.43987 11.15562,-3.70467 17.51475,-3.49174c4.05297,0.13571 24.54025,1.86092 52.63105,4.30196c0.8685,0.07547 2.22964,1.08058 3.03933,0.22844c0.90056,-0.94778 2.1356,0.2218 3.43041,0.33466c2.12873,0.18554 4.29437,0.37455 6.4935,0.56667c0.35092,0.03066 0.56528,0.74852 2.29215,0.36706c1.20117,-0.26533 1.22421,-0.05972 2.46934,0.0492c26.7004,2.33567 57.79054,5.07824 87.50759,7.65759c0.69066,0.05994 0.69346,0.53209 1.38256,0.59185c0.98413,0.08535 2.65372,-0.24177 3.63431,-0.15683c28.7833,2.49324 55.9546,4.80101 76.18466,6.39607c12.27639,0.96794 18.28192,10.89258 18.48798,14.67216c0.00759,0.68531 -0.56425,0.6085 -0.43625,1.81937c0.12979,1.79947 0.31398,1.46229 0.23392,2.07846c-0.49498,3.81007 -1.94635,6.80097 -4.98037,9.73353c-2.49726,2.41375 -6.73686,5.96074 -10.3328,6.27852c-37.46922,3.3113 -116.80579,10.48745 -174.48024,15.57177c-3.58347,0.3159 -5.57164,0.89858 -11.85856,0.37235c-1.35878,-0.11373 -1.32661,0.78648 -2.65242,0.9025c-27.05714,2.36783 -47.1419,4.06633 -52.00274,4.32183c-10.53974,0.55399 -20.48977,-3.82922 -27.50384,-10.23598c-1.35801,-1.24043 -2.41507,-0.01772 -3.61539,-1.72642c-1.02582,-1.4603 -0.25571,-2.21706 -0.73828,-2.88707c-1.8075,-2.5096 -4.00505,-5.2714 -5.16609,-8.24478c-0.40157,-1.0284 0.00693,-2.20117 -0.34806,-4.51477c-0.11737,-0.76494 -1.199,-0.78043 -1.34531,-1.38256c-0.72102,-2.96721 -0.96635,-6.19568 -0.96635,-9.36229z"/></g></g></svg>