<svg version="1.1" xmlns="http://www.w3.org/2000/svg" xmlns:xlink="http://www.w3.org/1999/xlink" width="196.2699" height="130.66141" viewBox="0,0,196.2699,130.66141"><g transform="translate(-141.80489,-116.41721)"><g fill="#000000" stroke="none" stroke-width="0" stroke-miterlimit="10"><path d="M175.31835,244.59032c-5.56268,-21.12043 -30.8074,-116.97046 -33.4167,-126.88711c-0.43481,-1.65252 0.67566,-1.63519 1.74052,-0.38893c1.06642,1.24809 7.54172,6.25424 11.65499,9.56858c1.95843,1.57804 1.59743,2.82032 2.6769,3.99452c0.28822,0.3135 1.40331,-0.28307 1.82761,0.2019c3.0625,3.50042 2.34855,8.49095 4.2819,10.49778c0.81805,0.84914 2.90393,0.03091 3.20857,-0.05663c3.20451,-0.92097 2.6178,1.3356 5.23757,1.02222c5.36706,-0.64201 5.08613,-3.22716 7.84949,-1.93093c2.82864,1.32685 5.16766,1.85951 5.6448,0.98705c2.63778,-4.82318 4.36013,-1.96963 6.98482,-2.69992c6.60894,-1.83888 7.6536,-1.43767 9.09819,-2.33c7.2339,-4.46839 7.5488,-1.06486 10.64772,-2.62302c8.48156,-4.2646 11.65642,-3.68806 15.40608,-4.78383c8.68293,-2.53742 12.78024,-1.81996 21.5208,-0.61906c4.70047,0.64582 3.4923,1.21054 8.88508,2.86806c3.24053,0.99601 8.36182,1.14816 11.38267,2.90241c4.30572,2.50039 26.54032,8.40845 27.18176,7.41001c1.11786,-1.74001 11.26731,2.12863 11.37379,1.70514c0.4074,-1.62025 2.89436,-1.76359 4.42313,-0.85507c1.62166,0.96373 1.24294,0.87065 2.61966,-0.5657c1.92825,-2.01174 -0.50346,-3.43886 2.96447,-7.6634c1.26301,-1.53857 2.93275,-1.94999 3.4386,-3.25052c1.10317,-2.83617 3.06145,-2.91895 3.38297,-4.18037c0.08129,-0.31892 0.75284,-1.36539 2.95513,-2.48974c1.53767,-0.78503 7.05152,-6.4303 7.7802,-7.28751c1.06169,-1.24897 2.35117,-0.5529 1.92056,1.10073c-2.58407,9.92326 -28.65932,105.83718 -34.16827,126.97168c-0.68651,2.63375 -2.42714,2.33116 -2.92464,0.05545c-0.25865,-1.18312 -0.87464,-4.55921 -2.01398,-7.22932c-0.487,-1.14132 -2.49991,-5.85335 -2.68473,-6.83165c-0.27042,-1.43128 0.57758,-3.63991 0.03515,-5.02516c-0.51079,-1.30445 -1.87489,-1.74389 -1.7514,-5.51235c0.12349,-3.76846 0.20801,-1.13712 1.59748,-4.83659c0.72165,-1.92138 1.29113,-1.75577 -1.64896,-2.23341c-4.55304,-0.73967 -3.83676,-4.67698 -7.67831,-4.93434c-10.81952,-0.72483 -0.5788,-3.96915 -12.56981,-4.53467c-5.31008,-0.25044 -18.84695,-6.02736 -29.36988,-7.97537c-3.22916,-0.59778 2.0148,-2.24696 -8.5112,-0.44132c-4.15392,0.69986 -9.3731,1.78794 -15.00683,3.12645c-0.78436,0.18635 -1.63135,-0.32841 -2.46538,-0.13272c-0.4748,0.1114 -0.9454,0.93023 -1.39785,1.04447c-4.58219,1.15695 -9.20916,2.45583 -13.39838,3.82542c-0.8777,0.28695 -2.74399,0.04629 -3.55309,0.3548c-2.61282,0.99629 -0.71954,2.7095 -2.65018,3.54314c-1.70804,0.73752 -4.80363,-0.84326 -7.36134,0.43371c-1.09064,0.54451 -1.51396,3.23098 -3.19058,4.08158c-1.13538,0.57601 -1.60717,-0.09315 -3.01198,0.93671c-0.89783,0.6582 -1.36928,0.55045 -0.92301,1.72951c1.39888,3.69592 1.39068,4.34309 1.25621,6.624c-0.05328,0.90368 -0.87452,3.13577 -1.38199,4.44152c-0.5389,1.38663 0.31607,4.13026 0.0493,5.56223c-0.41882,2.24812 -1.4546,3.73966 -2.31197,5.7632c-1.13254,2.673 -2.09898,5.69344 -2.35462,6.87722c-0.4917,2.27697 -2.58785,3.30112 -3.28106,0.66913z"/></g></g></svg>