<svg version="1.1" xmlns="http://www.w3.org/2000/svg" xmlns:xlink="http://www.w3.org/1999/xlink" width="158.88203" height="113.54823" viewBox="0,0,158.88203,113.54823"><g transform="translate(-161.86843,-124.41605)"><g fill="#000000" stroke="none" stroke-width="0" stroke-miterlimit="10"><path d="M162.39685,236.46218c-0.00804,-2.78617 -0.02322,-8.06313 -0.04266,-14.86411c-0.00734,-2.56596 0.71233,-4.10154 -0.23156,-8.29678c-0.08874,-0.39445 -0.25304,-1.27034 -0.2542,-1.68072c-0.00187,-0.65534 0.45487,-0.85963 0.45297,-1.52958c-0.09057,-31.87699 -0.22397,-79.66655 -0.22397,-84.6045c0,-0.8247 1.10334,-1.30533 2.23391,-0.40019c1.64533,1.31726 3.51079,4.54192 7.73253,11.60584c0.25786,0.43144 -0.26074,3.23316 0.25272,3.42819c1.14475,0.43481 1.39808,-0.08918 1.6895,0.75179c0.99359,2.86715 1.08978,5.50442 1.13368,7.24644c0.03331,1.322 -0.12493,2.28605 3.32262,2.45362c3.43746,0.16708 1.61246,1.85236 3.71383,1.84478c1.77167,-0.00639 4.44272,0.48296 6.9338,0.45553c1.0694,-0.01177 2.19872,1.49538 3.38282,1.47909c4.96789,-0.06832 11.57274,-0.03716 18.0843,-0.2232c0.69794,-0.01994 0.1834,-0.78706 2.20558,-0.66149c2.28663,0.142 1.36562,0.71998 2.19039,0.69443c11.29739,-0.34996 24.74584,-0.05155 37.18407,-0.39983c0.90637,-0.02538 1.63836,0.11483 2.53279,0.08209c0.68385,-0.02504 1.53289,-0.2214 2.20849,-0.25127c1.10599,-0.04889 2.40281,0.66227 3.52773,0.71105c1.61185,0.06989 3.04879,-0.50816 4.57623,-0.58848c10.55527,-0.55506 19.45368,0.53464 26.90855,-0.15849c2.57912,-0.2398 0.72652,-1.61576 9.58225,-1.51075c1.41316,0.01676 1.01512,-1.50769 1.93139,-1.61619c1.29176,-0.15297 2.35091,-0.24896 3.15573,-0.30904c1.19754,-0.0894 1.70028,-0.86549 1.62152,-2.00708c-0.13113,-1.9007 -0.2844,-5.18023 0.73084,-7.35922c0.37149,-0.7973 1.86906,1.00035 2.07094,-1.71985c0.14895,-2.00699 0.6221,-3.85567 1.4056,-5.06059c2.0415,-3.13958 4.4384,-6.33925 6.07324,-8.45061c1.15519,-1.49189 2.26794,-1.44252 2.26794,-0.05272c0,3.91054 -0.09132,23.66541 -0.19616,45.63892c-0.00482,1.00964 -0.69253,0.00133 -0.74727,2.36637c-0.04951,2.13915 0.72735,1.80229 0.72465,2.36713c-0.12053,25.17761 -0.25129,51.95513 -0.27911,60.51159c-0.00591,1.81857 -1.35499,2.06643 -2.34501,0.89559c-2.13833,-2.52885 -4.92591,-7.67048 -6.53312,-10.64138c-0.51372,-0.9496 -0.52938,-1.64647 -0.96171,-3.76204c-0.28143,-1.37712 -2.26792,-1.63446 -2.57749,-2.57433c-0.68705,-2.08594 -0.6291,-3.97042 -0.4935,-5.44085c0.14772,-1.60188 -0.26757,-2.38678 -1.22347,-2.35365c-4.43002,0.15355 -3.31433,-1.67949 -5.6656,-1.67741c-2.28334,0.00202 -3.09697,-0.13083 -6.57583,-0.0962c-0.97546,0.00971 -1.84111,-1.50803 -2.8994,-1.49585c-1.45278,0.01673 -2.74024,-0.20357 -4.32624,-0.18882c-0.69491,0.00646 -0.34058,0.60607 -2.4762,0.61096c-1.3587,0.00312 -1.43756,-0.57079 -2.35918,-0.56024c-9.6809,0.11083 -21.2099,0.28637 -32.92561,0.36349c-1.37517,0.00905 -1.24322,0.50729 -1.18059,-0.44917c0.00878,-0.13418 -5.15351,0.48068 -6.25382,0.48333c-0.9445,0.00227 -1.3154,-1.30501 -2.12393,-0.81933c-1.37713,0.82724 -1.80992,0.82849 -2.3602,0.82971c-4.42553,0.00986 -8.81802,0.01861 -13.0969,0.02707c-0.87047,0.00172 0.03115,0.52523 -1.88865,0.47712c-1.92527,-0.04825 -1.73263,-0.46995 -2.24194,-0.46894c-3.91941,0.0078 -7.71691,0.0156 -11.32686,0.02402c-1.24227,0.0029 -0.83933,-1.74522 -1.88755,-1.17102c-2.80403,1.53602 -3.35503,1.18413 -4.13012,1.18628c-1.37358,0.00382 -2.37071,-0.8747 -3.65029,-0.6729c-3.1516,0.49702 -5.09235,0.36216 -7.20839,0.38414c-2.71331,0.0282 -0.17692,1.23551 -7.19561,1.26187c-7.09866,0.02666 -0.85071,2.27891 -7.31783,2.19129c-1.73424,-0.02349 -1.85516,0.66107 -1.81402,1.45121c0.06612,1.26999 0.0499,3.34278 -0.48417,5.5182c-0.37811,1.54017 -2.76834,2.2783 -2.9381,4.4161c-0.14845,1.86941 -0.31519,2.69439 -0.81161,3.70137c-0.28955,0.58735 -0.68636,1.26539 -1.15132,1.99009c-0.52602,0.81986 -0.71402,0.45547 -2.01906,2.10294c-1.28892,1.62713 -0.96191,2.06311 -1.55612,2.80545c-0.75637,0.94493 -1.48452,1.80636 -2.09624,2.48498c-0.86373,0.95819 -1.75595,0.69293 -1.76004,-0.72526z"/></g></g></svg>