<svg version="1.1" xmlns="http://www.w3.org/2000/svg" xmlns:xlink="http://www.w3.org/1999/xlink" width="294.00484" height="259.37279" viewBox="0,0,294.00484,259.37279"><g transform="translate(-101.68485,-46.88325)"><g fill="#000000" stroke="none" stroke-width="0" stroke-miterlimit="10"><path d="M156.58524,65.30733c-11.64638,2.01583 -16.14613,12.22238 -19.08094,18.2914c-1.73253,3.58277 -5.04596,6.81106 -8.61929,9.21233c-9.62634,6.4689 -24.8845,8.25813 -26.15203,1.28473c-2.61259,-14.37339 -1.58862,-15.89577 17.86898,-28.39748c4.84154,-3.11075 20.44665,-18.32293 39.68231,-18.81159c4.71143,-0.11969 21.58611,2.73571 21.09283,27.66501c-0.41172,20.8076 -3.96684,29.39153 5.9086,37.01014c14.66573,11.31418 23.5574,13.65533 19.44651,26.14475c-0.36206,1.09999 -2.44234,10.41835 -5.45971,18.84341c-1.39188,3.88639 -10.0697,11.07961 -13.61262,24.47784c-0.53336,2.01699 -4.20894,13.24335 -5.39814,24.0593c-0.38881,3.53635 0.51327,14.91669 10.74884,27.19632c10.23557,12.27964 8.22415,13.05944 20.35952,22.69508c3.51472,2.14813 4.63383,5.02788 20.08679,6.89074c6.00692,0.72414 12.79448,5.74393 15.84033,14.86025c0.35191,1.05327 2.45741,5.90932 6.06763,12.52536c3.23728,5.93258 6.19487,7.33593 9.94514,7.48444c4.79353,0.18983 16.63815,-4.25838 33.16709,-10.85431c0.61341,-0.24478 16.2826,-9.56858 19.46559,-21.85577c2.28727,-8.82947 0.94277,-13.87672 4.83933,-28.93442c1.33746,-5.16841 6.49445,-13.93349 18.42304,-27.71649c5.20775,-6.01735 16.941,-18.94794 38.19002,-18.68232c1.77621,0.0222 15.8884,-0.69647 16.29198,14.47937c0.06201,2.33181 -0.9417,12.83464 -5.78167,20.9523c-0.91435,1.53355 -5.25226,6.51074 -10.97506,5.65545c-1.66163,-0.24834 -7.45577,0.29859 -7.88688,-6.65412c-0.17535,-2.82806 0.40074,-4.98165 3.07462,-7.20299c3.0253,-2.51328 0.08241,-5.56095 -0.69875,-6.21228c-6.50546,-5.42428 -13.36337,-0.24109 -14.53697,0.52237c-10.38613,6.75652 -21.97201,24.36889 -23.091,29.16951c-2.36189,10.13282 -4.554,24.4967 -6.09475,29.47872c-4.78104,15.45944 -19.13928,24.72586 -24.15232,26.92759c-7.80941,3.42991 -22.02132,9.8993 -42.5227,10.44009c-12.71249,0.33534 -20.4481,-20.67648 -22.17598,-25.9355c-1.21819,-3.70774 -3.08388,-8.82416 -6.81111,-10.11272c-4.14693,-1.43366 -10.43921,0.03297 -15.46738,-1.0671c-16.63692,-3.63984 -21.87467,-12.60609 -27.2287,-18.32923c-13.2882,-14.2043 -16.51815,-23.90536 -20.84503,-33.82059c-3.50899,-8.04101 -2.14921,-24.48991 -1.65514,-28.90928c1.4467,-12.94051 6.88406,-23.90583 7.65666,-25.55455c2.36837,-5.05408 5.45552,-9.44825 5.45552,-9.44825l-0.30656,-18.41093c0,0 -5.09196,-4.10181 -6.44788,-4.92218c-14.05465,-8.50342 -14.68141,-24.78993 -14.49937,-30.86888c1.09241,-36.47913 -0.35391,-34.2159 -4.11137,-33.56553zM183.87234,150.32866c0,0 1.79695,-3.65525 2.53298,-8.5358c0.31305,-2.07579 2.29505,-3.09062 -0.44504,-5.66488c-1.10837,-1.04129 -2.44598,-0.25094 -2.44598,-0.25094zM375.92995,210.15321c0.68968,1.1099 1.66295,-0.24209 1.28988,-1.55281c-0.9054,-3.18096 -2.55825,-3.13036 -3.52474,-3.13036c-0.9665,0 -2.01293,0.63257 -2.01293,0.63257c0,0 1.51215,1.1383 2.26564,1.77101c0.75006,0.62983 1.36049,1.27917 1.98214,2.27958z"/></g></g></svg>