<svg version="1.1" xmlns="http://www.w3.org/2000/svg" xmlns:xlink="http://www.w3.org/1999/xlink" width="126.44843" height="285.35166" viewBox="0,0,126.44843,285.35166"><g transform="translate(-175.49617,-41.65332)"><g fill="#000000" stroke="none" stroke-width="0" stroke-miterlimit="10"><path d="M272.22817,51.12107c0.02329,6.00205 -2.48973,5.6305 -7.95083,10.54921c-2.46488,2.22006 -1.3526,13.33654 7.85967,20.33534c0.54449,0.41366 10.2989,5.08477 17.21907,11.38442c5.59738,5.09547 4.32924,8.03732 7.61414,16.04962c1.98776,4.8484 4.88891,3.58145 4.97393,15.37094c0.05088,7.0556 -4.09694,12.07377 -7.13227,18.09685c-2.6389,5.23642 -3.89916,12.08487 -3.62525,18.90331c0.07572,1.88495 0.59831,12.41675 0.03623,21.73048c-0.15427,2.55631 -1.69938,4.94618 -2.53686,7.05092c-0.82267,2.06753 -3.85018,8.559 -9.20569,15.24659c-1.52055,1.89876 -2.55343,4.25036 -4.04364,6.00214c-1.98264,2.33062 -4.91834,6.24113 -15.16671,6.56994c-6.99818,0.22454 -8.32863,-2.5138 -14.17628,-3.00462c-2.43975,-0.20478 -6.29744,0.45922 -14.4849,6.9299c-1.21388,0.95935 -7.09329,6.94552 -18.46141,20.29442c-4.77508,5.6071 -11.26083,15.22269 -13.69828,23.44123c-0.72298,2.43774 -0.20073,12.07626 8.75871,23.42841c0.9527,1.20712 9.22746,11.40484 8.94557,21.71104c-0.30087,11.00043 -7.47485,16.74089 -14.341,15.66579c-5.71679,-0.89513 -8.30763,-2.14096 -11.41036,-3.23973c-10.32817,-3.65755 -13.02274,-7.68877 -13.33998,-12.25494c-1.05664,-15.20891 -1.42733,-22.50403 -2.00125,-27.99278c-1.32483,-12.67012 -0.13048,-23.5692 1.64373,-27.31376c6.34399,-13.3893 17.25581,-25.02943 20.96652,-27.86632c9.20311,-7.0359 20.20867,-17.11946 21.17797,-17.90629c5.76773,-4.68194 13.55389,-6.38797 14.49233,-6.58957c7.14911,-1.53582 14.70024,-1.80407 14.70024,-1.80407c0,0 0.67485,-0.39166 1.02973,-0.60714c5.56135,-3.37678 5.64124,-3.44565 9.4509,-4.68338c5.09036,-1.65382 10.03856,-1.80013 10.03856,-1.80013c0,0 0.19653,-0.20147 0.63763,-0.59536c2.12072,-1.89375 2.67857,-4.10089 3.87801,-5.79311c2.64387,-3.73008 2.95461,-2.5117 5.03958,-6.00326c3.49537,-5.85346 4.56743,-14.08817 4.49549,-16.81689c-0.0931,-3.53132 -0.23734,-3.552 -2.06099,-9.05513c-1.08705,-3.28033 0.03834,-13.60961 -0.04154,-16.44334c0.087,-3.44582 0.18203,-8.46379 0.22943,-13.39579c0.06534,-6.79815 0.04021,-13.433 -0.22111,-15.56234c-0.43631,-3.55531 -3.50313,-8.12288 -6.18976,-9.59462c-7.62986,-4.17965 -9.13601,-5.13021 -13.65382,-8.2461c-9.92865,-6.84771 -10.97196,-16.04259 -12.67442,-20.96472c-2.98564,-8.63204 -0.54178,-16.10268 0.48705,-17.18523c1.72486,-1.81491 1.4295,-5.63731 2.67032,-7.80933c1.68144,-2.94331 5.24828,-5.42525 11.03249,-5.6936c5.07253,-0.23533 9.02454,5.72414 9.03904,9.46099zM257.52231,204.89375c5.82101,1.12108 5.95768,-0.87043 6.61132,-1.58239c2.60322,-2.83548 3.52907,-5.45973 3.52907,-5.45973c0,0 -1.54072,-0.76065 -4.06,0.09956c-5.14726,1.2533 -5.43326,1.88288 -8.72152,3.56734c-1.65366,0.99359 -3.46985,2.19828 2.64112,3.37521zM283.83804,133.51663c0,0 1.55392,-3.13649 1.55392,-4.10299c0,-2.53516 1.76557,-7.73051 -0.18134,-10.27958c-0.58664,-0.76809 -1.75,-2.26969 -1.75,-2.26969c0,0 0.29176,5.10375 0.3472,7.54986c0.06784,2.99339 0.03022,9.1024 0.03022,9.1024zM183.07094,301.77035c1.25695,1.05448 2.08518,-1.92311 0.47633,-3.42588c-0.7063,-0.65974 -0.86641,-1.68125 -1.28075,-2.55443c-3.84903,-8.11129 -3.49292,1.58793 -2.48739,3.76107c0.40587,0.87715 1.64155,0.83479 3.29182,2.21925z"/></g></g></svg>