<svg version="1.1" xmlns="http://www.w3.org/2000/svg" xmlns:xlink="http://www.w3.org/1999/xlink" width="478.46077" height="39.08932" viewBox="0,0,478.46077,39.08932"><g transform="translate(-0.76962,-160.45534)"><g data-paper-data="{&quot;isPaintingLayer&quot;:true}" fill="#020202" fill-rule="evenodd" stroke="none" stroke-width="1" stroke-linecap="butt" stroke-linejoin="miter" stroke-miterlimit="10" stroke-dasharray="" stroke-dashoffset="0" style="mix-blend-mode: normal"><path d="M379.10382,160.82729c-0.21468,3.05652 -0.39066,6.10666 -0.52791,9.15041c1.69635,3.27806 4.33589,4.86179 7.91862,4.75118c0.70388,-0.35193 1.40776,-0.70388 2.11163,-1.05581c4.37108,-3.90447 8.94628,-7.54117 13.72561,-10.9101c1.67875,-0.8322 3.37861,-1.59473 5.10311,-2.2876c-0.1443,3.28295 -0.26043,6.5677 -0.35193,9.85429c1.73858,3.18522 4.37812,4.65161 7.91862,4.39923c0.87984,-0.38024 1.69987,-0.84951 2.46357,-1.40776c4.09305,-3.57098 8.31632,-6.97303 12.6698,-10.20622c1.74914,-1.16871 3.62849,-2.04857 5.63102,-2.63954c-0.1443,3.28708 -0.20413,6.57182 -0.17597,9.85429c1.42536,2.48004 3.53699,4.0051 6.3349,4.5752c1.05933,-0.07957 2.05884,-0.37284 2.99148,-0.87984c4.23735,-3.65273 8.58027,-7.17212 13.02173,-10.55816c1.64355,-0.93852 3.28359,-1.877 4.92714,-2.81551c0.454,-0.17246 0.9256,-0.23111 1.40776,-0.17597c-0.2358,3.28349 -0.29211,6.56827 -0.17597,9.85429c0.87984,2.41447 2.57971,3.99821 5.10311,4.75118c3.20969,0.65612 6.37713,1.4773 9.50234,2.46357c0.22172,0.26409 0.3977,0.5574 0.52791,0.87984c-0.05279,5.12384 -0.75667,10.16829 -2.11163,15.13336c-1.50278,3.02949 -3.90652,4.84796 -7.21474,5.45505c-18.0615,0.38572 -36.13004,0.5617 -54.19858,0.52791c-127.28605,-0.34561 -254.57069,-0.99105 -381.85357,-1.93567c-11.04652,-0.04117 -22.07392,-0.33434 -33.08225,-0.87984c0,-0.23474 0,-0.46914 0,-0.70388c10.25391,-11.95487 21.39865,-23.04094 33.43418,-33.25821c1.71615,-0.86525 3.47575,-1.62779 5.27908,-2.2876c0.28437,0.10826 0.51911,0.28424 0.70388,0.52791c-2.75638,4.8153 -2.16971,9.15587 1.75969,13.02173c1.36799,1.0663 2.89293,1.41824 4.5752,1.05581c1.28986,-0.52685 2.46286,-1.23073 3.51939,-2.11163c3.06293,-2.94618 6.23037,-5.76169 9.50234,-8.44653c2.4692,-1.67449 5.10875,-3.02359 7.91862,-4.0473c-0.36601,3.38332 -0.48321,6.78542 -0.35193,10.20622c0.98191,1.22876 2.0965,2.34321 3.34342,3.34342c1.98423,1.14619 3.97832,1.14619 5.98295,0c3.87132,-3.16744 7.74265,-6.3349 11.61397,-9.50234c2.4692,-1.67449 5.10875,-3.02359 7.91862,-4.0473c-0.09925,2.71025 -0.39242,5.40846 -0.87984,8.09459c0.66481,2.95509 2.42451,5.00805 5.27908,6.15893c0.93862,0.23464 1.87689,0.23464 2.81551,0c1.61821,-0.79893 3.14317,-1.73745 4.5752,-2.81551c3.05025,-2.58087 6.10016,-5.16178 9.15041,-7.74265c2.40902,-1.46839 4.93101,-2.70019 7.56669,-3.69535c-0.14922,2.69332 -0.44273,5.39149 -0.87984,8.09459c0.92595,3.50682 3.15478,5.73576 6.68683,6.68683c1.79911,-0.60604 3.44161,-1.48589 4.92714,-2.63954c4.90075,-4.91078 10.41422,-8.95808 16.54112,-12.14189c0.20623,0.07367 0.3822,0.19098 0.52791,0.35193c0.05877,0.87984 0.11719,1.75969 0.17597,2.63954c-0.26395,2.28605 -0.32272,4.57365 -0.17597,6.86281c1.54043,2.40863 3.65206,4.05099 6.3349,4.92714c4.03709,-1.68508 7.49805,-4.20732 10.3822,-7.56669c2.11163,-1.52506 4.22327,-3.05015 6.3349,-4.5752c1.75054,-1.16871 3.62743,-2.04857 5.63102,-2.63954c-0.05349,2.23125 -0.17069,4.46019 -0.35193,6.68683c0.28471,6.80283 3.56936,8.97314 9.85429,6.51087c3.25649,-2.3166 6.30675,-4.89748 9.15041,-7.74265c2.88695,-2.08883 5.9372,-3.90719 9.15041,-5.45505c0.20623,0.07367 0.3822,0.19098 0.52791,0.35193c0.10593,2.11106 0.04751,4.2227 -0.17597,6.3349c-0.1721,2.47487 0.53178,4.64517 2.11163,6.51087c3.36911,1.76529 6.53655,1.41335 9.50234,-1.05581c4.86379,-4.86633 10.31884,-8.91362 16.36515,-12.14189c0.27169,0.05097 0.50644,0.16828 0.70388,0.35193c0.11543,2.12909 -0.06053,4.24072 -0.52791,6.3349c0.93968,8.09537 4.811,9.9137 11.61397,5.45505c3.31139,-3.31301 6.83078,-6.36313 10.55816,-9.15041c1.86281,-1.31237 3.91567,-2.19222 6.15893,-2.63954c0.29317,0.11731 0.58669,0.23463 0.87984,0.35193c-1.45879,3.05975 -1.75195,6.22721 -0.87984,9.50234c1.23671,2.46878 3.17238,4.11114 5.80699,4.92714c2.59836,-0.77103 4.94439,-2.00282 7.03878,-3.69535c3.70838,-4.07778 7.93164,-7.47983 12.6698,-10.20622c1.13324,-0.47597 2.30626,-0.76925 3.51939,-0.87984c-0.53671,2.08319 -1.00584,4.19483 -1.40776,6.3349c0.33223,4.31681 2.56141,7.01501 6.68683,8.09459c2.16548,-0.61343 4.15957,-1.61058 5.98295,-2.99148c2.11163,-1.6424 3.98852,-3.51939 5.63102,-5.63102c3.42929,-2.74146 7.24185,-4.79443 11.43801,-6.15893c0.17597,0.17597 0.35193,0.35193 0.52791,0.52791c-3.49404,5.69089 -2.43823,10.38339 3.16744,14.07755c0.8904,0.50035 1.82902,0.61765 2.81551,0.35193c4.6924,-3.75403 9.38515,-7.50801 14.07755,-11.26204c2.39389,-1.75416 5.03343,-2.98596 7.91862,-3.69535c0.17597,0.17597 0.35193,0.35193 0.52791,0.52791c-3.22657,4.86594 -2.63989,9.20651 1.75969,13.02173c2.68178,1.35089 5.14534,0.99894 7.39071,-1.05581c4.09305,-3.57098 8.31632,-6.97303 12.6698,-10.20622c1.69283,-0.84826 3.45251,-1.49349 5.27908,-1.93567zM457.23422,190.74208c3.65664,-0.13015 7.29218,0.04582 10.9101,0.52791c0.90801,0.74622 0.90801,1.50876 0,2.2876c-4.28662,0.96959 -8.62602,1.26276 -13.02173,0.87984c-0.96431,-1.14092 -0.84817,-2.19673 0.35193,-3.16744c0.66165,-0.06971 1.24938,-0.24569 1.75969,-0.52791z"/></g></g></svg>